<?xml version="1.0" encoding="utf-8"?>
<!-- Generator: Adobe Illustrator 21.0.0, SVG Export Plug-In . SVG Version: 6.00 Build 0)  -->
<svg version="1.1" id="Warstwa_1" xmlns="http://www.w3.org/2000/svg" xmlns:xlink="http://www.w3.org/1999/xlink" x="0px" y="0px"
	 viewBox="0 0 1129 663" style="enable-background:new 0 0 1129 663;" xml:space="preserve">
<style type="text/css">
	.st0{fill:#93E2C4;}
	.st1{fill:#122543;}
	.st2{fill:#071019;}
	.st3{fill:#3F3D56;}
	.st4{fill:#0B1728;}
	.st5{fill:#DCF4E9;}
</style>
<path class="st0" d="M17.7,429.8C22,448.6,36,498.6,73.3,544.9c97.1,120.8,407.9,73.2,425.1,70.8c11.2-1.5,22.5-2.9,33.7-3.9
	c39.5-3.9,79.2-5,118.8-3.4c13.4,0.5,92.6,8.6,92.6,8.6s36.2,17.3,85.4,16.2c148.7-3.3,267.2-97.7,264.7-210.7
	c-1.6-73.1,12-109.7-51.5-223.7c-38-71.5-59-86.4-94.8-112.5c-57.7-42.1-353-95-609.8-42.9C250,61.2,156.3,78.1,107.1,116.5
	C57.8,154.9-18.8,269.7,17.7,429.8z"/>
<title>Focus on What Matters</title>
<ellipse class="st1" cx="559" cy="635.5" rx="514" ry="27.5"/>
<ellipse class="st2" cx="558" cy="627" rx="460" ry="22"/>
<rect x="131" y="152.5" class="st3" width="840" height="50"/>
<path class="st1" d="M131,611.6c0,12,9.7,21.7,21.7,21.7c0,0,0,0,0,0h796.7c12,0,21.7-9.7,21.7-21.7c0,0,0,0,0,0V180.3H131V611.6z"
	/>
<path class="st3" d="M949.3,117.5H152.7c-12,0-21.7,9.7-21.7,21.7v0v38.3h840v-38.3C971,127.2,961.3,117.5,949.3,117.5
	C949.3,117.5,949.3,117.5,949.3,117.5z"/>
<path class="st4" d="M949.3,117.5H152.7c-12,0-21.7,9.7-21.7,21.7v0v38.3h840v-38.3C971,127.2,961.3,117.5,949.3,117.5
	C949.3,117.5,949.3,117.5,949.3,117.5z"/>
<circle class="st5" cx="181" cy="147.5" r="13"/>
<circle class="st5" cx="217" cy="147.5" r="13"/>
<circle class="st5" cx="253" cy="147.5" r="13"/>
<path class="st5" d="M171.3,198.3h752.4c6.8,0,12.3,2.4,12.3,5.3v375.3c0,2.9-5.5,5.3-12.3,5.3H171.3c-6.8,0-12.3-2.4-12.3-5.3
	V203.6C159,200.6,164.5,198.3,171.3,198.3z"/>
<path class="st0" d="M445,222.1c-6.4-5-15.5-4.4-21.3,1.3l-27,27c-5.7,5.7-6.3,14.8-1.4,21.3l53.9,70.1c3,4,7.8,6.3,12.8,6.3h36.5
	l73.4,73.4c-9.9,19.5-6.7,44.1,9.6,60.4l75.5,75.5c8.4,8.4,22.1,8.4,30.5,0l43.1-43.1c8.4-8.4,8.4-22.1,0-30.5l-75.5-75.5
	c-16.3-16.3-40.8-19.5-60.4-9.6l-73.4-73.4v-36.5c0-5.1-2.4-9.8-6.3-12.8L445,222.1z M405.4,485.7c-8.6,8.6-13.4,20.2-13.4,32.3
	c0,25.3,20.5,45.8,45.8,45.8c12.1,0,23.8-4.9,32.3-13.4l79.4-79.4c-5.3-14.1-6.1-29.4-2.4-43.9l-41.6-41.6L405.4,485.7z M737,315.8
	c0-7.1-0.7-13.9-2.2-20.6c-1.6-7.5-10.8-9.5-16.3-4l-43.1,43.1c-2,2-4.8,3.2-7.6,3.2l-38.7-0.1c-5.9,0-10.8-4.9-10.8-10.8v-38.7
	c0-2.8,1.1-5.6,3.2-7.6l43.1-43.1c5.5-5.5,3.5-14.7-4-16.3c-6.7-1.4-13.5-2.2-20.6-2.2c-53.6,0-97,43.5-97,97v0.5l57.5,57.5
	c24.3-6.1,51.1,0.3,70.1,19.3l10.6,10.6C714.1,388.2,737,354.7,737,315.8z M429.8,509.8c0-8.9,7.2-16.2,16.2-16.2
	s16.2,7.2,16.2,16.2c0,8.9-7.2,16.2-16.2,16.2S429.8,518.8,429.8,509.8z"/>
</svg>
