<?xml version="1.0" encoding="utf-8"?>
<!-- Generator: Adobe Illustrator 21.0.0, SVG Export Plug-In . SVG Version: 6.00 Build 0)  -->
<svg version="1.1" id="Warstwa_1" xmlns="http://www.w3.org/2000/svg" xmlns:xlink="http://www.w3.org/1999/xlink" x="0px" y="0px"
	 viewBox="0 0 1088 688" style="enable-background:new 0 0 1088 688;" xml:space="preserve">
<style type="text/css">
	.st0{fill:#93E2C4;}
	.st1{fill:#DCF4E9;}
	.st2{fill:#0B1728;}
</style>
<title>Easy to Use</title>
<path id="Path_83" class="st0" d="M1007.5,387.6c1.8,46.1-4.3,84.4-16.2,116.1c-15.8,42.3-51.4,64.3-82.8,86.3
	c-9.1,6.4-18.7,12.1-28.7,17.1c-58.9,29.9-129.4,36.6-185.8,35.7c-39.6-0.6-79.2,1.6-118.6,6.7c-11.2,1.4-22.4,3.1-33.6,5
	c-17.2,3-326.8,61-425.6-62.8c-24.4-30.5-44.2-69.6-57.3-119C21.6,333.1,77.2,227.7,159,151.1C313.8,6.1,553.7-29.7,745.7,59.4
	C873.5,118.7,1001,219.8,1007.5,387.6z"/>
<path id="Path_83_1_" class="st1" d="M189.6,258.6c11-40,35.2-86.4,51.3-110.5c21.5-32.1,50.5-41.6,76.8-52.2
	c7.6-3.1,15.4-5.4,23.2-7.1c46.3-10.1,94,2.8,130.5,18.4c25.6,11,52.1,19.5,79.1,25.6c7.7,1.7,15.5,3.2,23.2,4.6
	c12,2,122.7,17.5,154.4,149.8c7.8,32.6,3.8,87.7-0.6,133.6c-12.6,129.7,1.2,124.1-72.3,168.2c-139.1,83.5-266.6,115-368.2-12.1
	C219.2,492.2,149.5,404.3,189.6,258.6z"/>
<path id="Ellipse_18_2_" class="st2" d="M-455.2,421.5"/>
<path id="Ellipse_18_1_" class="st2" d="M632.8,421.5"/>
<path class="st2" d="M711.7,141.5c-18.5-18.4-48.4-18.4-66.9,0l-25.4,25.2l82.7,82.4l25.4-25.3c18.5-18.4,18.5-48.2,0-66.6
	L711.7,141.5z M459,326.6c-5.2,5.1-9.1,11.4-11.4,18.4l-25,74.7c-2.4,7.2-0.5,15.2,4.9,20.7s13.4,7.3,20.8,4.9l75-24.9
	c6.9-2.3,13.3-6.2,18.5-11.4l141.3-140.8l-82.8-82.5L459,326.6z M394.5,177.1c-44.8,0-81.1,36.2-81.1,80.8v215.4
	c0,44.6,36.3,80.8,81.1,80.8h216.2c44.8,0,81.1-36.2,81.1-80.8v-80.8c0-14.9-12.1-26.9-27-26.9s-27,12-27,26.9v80.8
	c0,14.9-12.1,26.9-27,26.9H394.5c-15,0-27-12-27-26.9V257.9c0-14.9,12.1-26.9,27-26.9h81.1c15,0,27-12,27-26.9s-12.1-26.9-27-26.9
	H394.5z"/>
</svg>
