<?xml version="1.0" encoding="utf-8"?>
<!-- Generator: Adobe Illustrator 21.0.0, SVG Export Plug-In . SVG Version: 6.00 Build 0)  -->
<svg version="1.1" id="Warstwa_1" xmlns="http://www.w3.org/2000/svg" xmlns:xlink="http://www.w3.org/1999/xlink" x="0px" y="0px"
	 viewBox="0 0 1041.3 554.1" style="enable-background:new 0 0 1041.3 554.1;" xml:space="preserve">
<style type="text/css">
	.st0{fill:#DCF4E9;}
	.st1{fill:#93E2C4;}
	.st2{fill:#0B1728;}
</style>
<title>Powered by React</title>
<path id="Path_299" class="st0" d="M957.4,436.2c-1.1,2.2-2.2,4.4-3.3,6.6c-1.7,3.4-3.4,6.7-5,9.9c-0.7,1.4-1.5,2.8-2.2,4.3
	c-8.1,15.7-15.7,29.5-22.1,40.9c-11.9,21-34.9,34.3-60.1,34.5l-142.9,1.5h-1.5l-12.2,0.1l-10.5,0.1l-32.1,0.3h-1.3l-16.4,0.2h-0.5
	l-100.8,1l-90,0.9l-10.5,0.1l-65,0.7H381l-42.2,0.4h-0.5l-133.3,1.4l-39.9,0.4c-3.4,0-6.8-0.1-10.2-0.5l0,0
	c-1.1-0.1-2.3-0.3-3.4-0.4c-18.6-2.7-35.7-11.4-48.3-24.6c-17.2-17.9-29.6-38.7-38-61.3c-1.2-3.3-2.3-6.6-3.4-9.9
	c-29-92.9,6.4-212.7,70-292.8c2.7-3.4,5.4-6.6,8.1-9.8l0.1-0.1c19.6-22.8,41.5-41.8,64.9-55.3c41.5-24,87.4-30.8,132.5-10.6
	c38.2,17,73.9,25.1,108.5,27.2c3.5,0.2,7,0.4,10.5,0.5c79.4,2.4,153.7-24.7,241-42.2c3.5-0.7,7-1.4,10.5-2
	c62.3-11.7,131.4-17.9,213.6-4.9c8.5,1.3,17,3.2,25.2,5.7c3.6,1.1,7.1,2.3,10.5,3.6c39.2,15.1,60.6,43,69.7,78
	c0.9,3.2,1.6,6.5,2.2,9.9C1045.4,234.1,998.2,353.4,957.4,436.2z"/>
<path id="Path_83" class="st1" d="M405.3,110.2c114.3-13.7,266.4-59.1,351.5,28.1c45,46,76,160.6,55.5,244.5
	c-7.2,29.7-1.8,65.9-15.2,84.2c-54.3,74.4-276.9,44.6-283,43.8c-23.5,0.4-119.2,9.6-158.2,2.4c-12.1-2.2-40.4-16.1-45.4-19.9
	c-20.9-11.7-23.8-13.3-37-47.7c-16.1-48.3,5.6-171.6,6.6-199.3C283.7,145.5,327.4,134.9,405.3,110.2z"/>
<path class="st2" d="M472.4,123.8V164h154.8v-40.2c0-4.4-3.5-8-7.7-8H480.1C475.8,115.8,472.4,119.4,472.4,123.8z M425.9,164v-40.2
	c0-31,24.3-56.2,54.2-56.2h139.3c29.9,0,54.2,25.2,54.2,56.2V164h27.2c12.3,0,24.1,5.1,32.8,14.2l50.2,52.1c8.7,9,13.6,21.3,13.6,34
	v92.5H673.6v-32.1c0-17.8-13.8-32.1-31-32.1s-31,14.4-31,32.1v32.1H487.8v-32.1c0-17.8-13.8-32.1-31-32.1s-31,14.4-31,32.1v32.1
	H302.1v-92.5c0-12.8,4.9-25,13.6-34l50.2-52.1c8.7-9,20.5-14.2,32.8-14.2H425.9z M302.1,453.2v-64.3h123.8c0,17.8,13.8,32.1,31,32.1
	s31-14.4,31-32.1h123.8c0,17.8,13.8,32.1,31,32.1s31-14.4,31-32.1h123.8v64.3c0,35.4-27.8,64.3-61.9,64.3H364
	C329.9,517.4,302.1,488.6,302.1,453.2z"/>
</svg>
