<?xml version="1.0" encoding="utf-8"?>
<!-- Generator: Adobe Illustrator 21.0.0, SVG Export Plug-In . SVG Version: 6.00 Build 0)  -->
<svg version="1.1" id="Warstwa_1" xmlns="http://www.w3.org/2000/svg" xmlns:xlink="http://www.w3.org/1999/xlink" x="0px" y="0px"
	 viewBox="0 0 1024 1024" style="enable-background:new 0 0 1024 1024;" xml:space="preserve">
<style type="text/css">
	.st0{fill:#ABE5D0;}
	.st1{fill:#0B1728;}
	.st2{fill:none;stroke:#0B1728;stroke-width:6;stroke-miterlimit:10;}
	.st3{fill:none;stroke:#ABE5D0;stroke-width:5;stroke-miterlimit:10;}
</style>
<path class="st0" d="M512,1001c270,0,489-219,489-489S782,23,512,23S23,242,23,512S242,1001,512,1001z"/>
<path class="st1" d="M533.9,202.1h58.7"/>
<path class="st1" d="M533.9,1022.3h58.7"/>
<path class="st1" d="M530.3,782.3v35.5"/>
<path class="st1" d="M997.6,814.4h-687v97.4h687.2v-97.4H997.6z"/>
<path class="st1" d="M448.2,286.7c-22.3,20.7-20.2,57.8,2.1,78c32.1,29,92,7.8,99.7-34.7c0.3-1.3,0.5-2.8,0.5-4.1
	c2.1-23.1-13-44.6-9.6-67.6c1-7.3,5.7-13.5,10.1-19.4c9.8-13.2,23.6-31.9,20.2-49.5c-1.8-9.6-8.5-17.4-15.5-23.8
	c-9.3-8.5-32.1-26.2-17.9-40.7c2.1-2.1,5.2-3.9,8-4.4c2.3-0.5,5.2-0.5,7.3,0.8c7.3,4.1,9.1,12.7,18.7,13c4.9,0.3,10.1-2.3,13-6.2
	c4.7-6.2,4.4-14.8,2.3-22c-1-4.1-2.6-8.3-1.6-12.4c1.6-6.5,9.1-9.8,15.5-9.8c6.7,0,13,2.8,19.2,4.9c17.6,5.4,37.8,4.4,53.6-5.2
	c8.3-5.2,15.8-13.2,16.1-23.1c0.3-8.3-4.1-16.1-9.8-22.3c-14.5-15.8-36.3-23.3-57.5-25.9c-21-2.3-42.7-0.3-62.2,7.5
	c-19.7,7.8-37.3,21.2-48.7,39.1c-9.6,15-14.5,32.6-15.5,50.3c-1,18.1,3.4,35,6.5,52.6c2.6,14.2-3.1,30.3-13.2,40.4
	c-7.8,7.8-16.8,13.7-24.9,21.2c-8.3,7.8-15,18.1-15.5,29.8c-0.5,8.3,3.4,12.7,6,19.7c2.3,5.7-2.8,9.8-6.5,13.5
	C448.2,286.5,448.2,286.5,448.2,286.7z"/>
<path class="st2" d="M676.4,76.4c5.2,23.3,5.4,42.7,4.7,56c-1,17.1-3.1,49-23.3,78.5c-11.4,16.6-20.7,21.2-23.3,22.3
	c-21.8,10.1-44.6-0.3-50.3-2.8"/>
<path class="st2" d="M610.9,250.9c1.8,12.2,2.1,30.3-8.8,47.1c-2.6,3.9-11.4,17.1-29,24.1c-8.8,3.4-16.8,4.4-23.8,4.1"/>
<path class="st2" d="M398.4,584.9c-9.6-40.9-17.4-86.5-21.5-136.5c-4.1-47.9-9.1-89.4-2.1-132.9c1.6-10.1,7.3-19.9,18.1-25.9
	c8-4.7,17.1-9.3,26.4-14c11.4-5.4,22.3-10.4,32.6-14.8"/>
<path class="st2" d="M612.1,239.9c14,4.9,24.1,7.8,40.7,13.5c21.5,7.8,29.3,10.9,39.9,18.9c19.9,15.3,27.2,36.8,32.1,52.1
	c24.9,75.9,45.6,153.6,50.3,171.2c9.6,12.7,19.9,25.4,30.8,38.3c12.2,14.5,24.1,28,35.7,40.9"/>
<path class="st2" d="M454.5,765.5c-28-19.7-66.9-45.6-90.8-70.2c-20.5-21-43.5-50.5-35.7-81.9c3.9-16.1,17.1-27.2,32.9-30.8
	c30.8-7,66.6,13,94.3,24.9c54.7,23.1,106.6,42.9,163,61.3"/>
<path class="st1" d="M377.7,825c-16.8-12.7-20.7-39.9-5.4-55.2c8.5-8.5,22.8-10.6,34.2-11.1c14.2-0.8,29,3.9,43.3,2.8
	c14.5-0.8,27.7-7.5,42.2-8.5c7.5-0.5,15.3,0,21.8,3.4c5.4,2.8,9.6,7.3,13.2,12.4c2.1,2.8,7,10.1,3.6,13.5c-1.3,1.3-3.4,3.9-5.2,3.6
	c-9.1-1.6-17.9-3.1-27.2-5.2c-8.8-1.8-17.9-3.1-26.9-3.9c-11.9-0.8-27.5-0.3-34.5,11.1c-7.5,12.7,0.3,26.9,11.9,33.7"/>
<path class="st2" d="M495.3,624l126.4,19.7l6.7-30.8c-53.1-27.2-105.9-54.4-159.1-81.6c-1.6-31.9-2.8-64-4.4-95.8"/>
<path class="st2" d="M628.5,612.6l45.1,8.3l40.4,28.8"/>
<path class="st2" d="M621.7,643.4l46.1,9.8l23.1,28"/>
<path class="st2" d="M658,655.9l-110.1,35.5l126.4,32.1l81.3-127.2l217.1-57.2l-55.2,92.5"/>
<path class="st2" d="M531.3,777.9L688,724.3L897.4,674"/>
<path class="st2" d="M713.9,622.5l-26.7-85.7V419.9l22.8,116.8l70,53.1"/>
<path class="st2" d="M892.3,817.3c3.1-2.8,37.1-34.5,30.7-70.3c-2.6-14.8-10.6-24.9-13.7-28.8c-18.7-23.6-43-28.5-71.2-30.3"/>
<path class="st1" d="M912,684.1c15,0,27.5-12.2,27.5-27.5c0-15.3-12.2-27.5-27.5-27.5s-27.5,12.2-27.5,27.5
	C884.5,671.9,896.7,684.1,912,684.1z"/>
<path class="st2" d="M558.3,691.4v19.2l101.3,23.6"/>
<path class="st2" d="M877.9,695.3l16.1-4.1l6.2-11.9"/>
<path class="st1" d="M618.4,238.3c-4.1,0-9.8,0-16.3-1.6c-7.3-1.6-12.7-4.1-16.3-6.2c0.8,6,2.3,14,7,23.3
	c5.7,11.1,13.2,18.9,18.7,23.6c2.3-4.1,5.2-9.8,6.7-16.8C620.2,251.3,619.4,243.5,618.4,238.3z"/>
<g>
	<path class="st1" d="M187.4,723.9H79v24.7h108.3V723.9z"/>
	<path class="st1" d="M179.7,748.6l7.9,116l1.9,26.9l7.3,107.4H69.5l7.3-107.4l1.9-26.9l7.9-116"/>
	<path class="st1" d="M100.5,729c-8.7-5.8-16.5-13.4-19.3-23.5c-3.6-13.1,3.9-19,0.2-33.8c-3.3-12.8-12.3-21.6-17.1-26.5
		c-10.3-10.1-15.6-9.3-21.2-18.5c-4.2-6.8-8.6-18.8-3.6-24.7c6.4-7.5,24.3-0.6,25.8-0.2c23,8.9,42.3,38,40.9,65.7
		c-0.6,13.4-5.8,18.7-3,31.8c2.8,12.8,10.9,22.1,17.4,28"/>
	<path class="st1" d="M121.4,723.6c3.1-9.7,4.5-19.9,4.2-30c-0.3-14.2-4.4-27.4-9.7-40.5c-4.8-12-14.5-23.7-13.4-37.2
		c0.9-12.1,9.5-22.4,12-34.2c2.5-12.1,1.1-24.9-2.5-36.7c-1.7-5.8-4-11.4-5-17.1c-1.1-5.9-0.8-12.3,2.3-17.4
		c5.8-9.8,20.7-11.7,30.2-5.3c9.5,6.4,13.9,18.5,13.1,30c-0.6,11.4-5.6,22.1-11.2,32.1c-6.1,10.6-13.2,21.9-11.1,33.9
		c1.1,6.1,4.7,11.4,7.5,17c6.4,12.6,9.7,26.9,9.2,41.1c-0.6,15.6-5.4,30.5-8.7,45.6c-4.5,20.4-2.3,38.4,2.6,58.5"/>
	<path class="st1" d="M154.7,729.3c-9.8-15.3-2.8-33.5,6.4-47.2c7.6-11.4,17-21.5,22.7-33.8c8.9-19,7.8-41.2,14.5-61.2
		c2.8-8.2,7.2-16.5,14.6-21.5c7.3-4.8,18.1-5.4,24.4,0.6c8.1,7.6,6.8,21.8,3.1,31.1c-5.9,15.4-14.8,29.6-25.2,42.3
		c-9.8,12.1-20.9,23.2-30.5,35.3c-12.9,16.2-29,36-17.6,61.5"/>
	<path class="st1" d="M189.6,891.5H76.9l1.9-30.8h109L189.6,891.5z"/>
	<path class="st1" d="M103.9,847.2c4.7,0,8.6-3.9,8.6-8.6c0-4.7-3.9-8.6-8.6-8.6s-8.6,3.9-8.6,8.6
		C95.4,843.3,99.1,847.2,103.9,847.2z"/>
	<path class="st1" d="M133.2,847.2c4.7,0,8.6-3.9,8.6-8.6c0-4.7-3.9-8.6-8.6-8.6s-8.6,3.9-8.6,8.6
		C124.6,843.3,128.5,847.2,133.2,847.2z"/>
	<path class="st1" d="M162.5,847.2c4.7,0,8.6-3.9,8.6-8.6c0-4.7-3.9-8.6-8.6-8.6c-4.7,0-8.6,3.9-8.6,8.6
		C153.9,843.3,157.8,847.2,162.5,847.2z"/>
	<path class="st1" d="M103.9,977.8c4.7,0,8.6-3.9,8.6-8.6c0-4.7-3.9-8.6-8.6-8.6s-8.6,3.9-8.6,8.6
		C95.4,973.9,99.1,977.8,103.9,977.8z"/>
	<path class="st1" d="M133.2,977.8c4.7,0,8.6-3.9,8.6-8.6c0-4.7-3.9-8.6-8.6-8.6s-8.6,3.9-8.6,8.6
		C124.6,973.9,128.5,977.8,133.2,977.8z"/>
	<path class="st1" d="M162.5,977.8c4.7,0,8.6-3.9,8.6-8.6c0-4.7-3.9-8.6-8.6-8.6c-4.7,0-8.6,3.9-8.6,8.6
		C154.1,973.9,157.8,977.8,162.5,977.8z"/>
	<path class="st3" d="M191.4,937.4l-11.7-6.2l-11.7,6.2l-11.7-6.2l-11.7,6.2l-11.7-6.2l-11.7,6.2l-11.7-6.2L98,937.4l-11.7-6.2
		l-11.7,6.2"/>
	<path class="st3" d="M182.1,799.1l-9.8-6.2l-9.8,6.2l-9.8-6.2l-9.8,6.2l-9.8-6.2l-9.8,6.2l-9.8-6.2l-9.8,6.2l-9.8-6.2l-9.8,6.2"/>
</g>
</svg>
