<?xml version="1.0" encoding="utf-8"?>
<!-- Generator: Adobe Illustrator 21.0.0, SVG Export Plug-In . SVG Version: 6.00 Build 0)  -->
<svg version="1.1" id="Warstwa_1" xmlns="http://www.w3.org/2000/svg" xmlns:xlink="http://www.w3.org/1999/xlink" x="0px" y="0px"
	 viewBox="0 0 1024 1024" style="enable-background:new 0 0 1024 1024;" xml:space="preserve">
<style type="text/css">
	.st0{fill:#0B1728;}
	.st1{fill:none;stroke:#98E2C6;stroke-width:3;stroke-miterlimit:10;}
	.st2{fill:#98E2C6;}
</style>
<path class="st0" d="M549,977.4c245.6,0,444.8-199.2,444.8-444.8S794.6,87.9,549,87.9S104.2,287,104.2,532.7S303.4,977.4,549,977.4z
	"/>
<g>
	<path class="st1" d="M525,740.7v30.4"/>
	<path class="st2" d="M925.6,768.2H336.7v83.5h589v-83.5H925.6z"/>
	<path class="st2" d="M454.6,311.5c-19.1,17.8-17.3,49.5,1.8,66.8c27.5,24.9,78.8,6.7,85.5-29.8c0.2-1.1,0.4-2.4,0.4-3.6
		c1.8-19.8-11.1-38.2-8.2-57.9c0.9-6.2,4.9-11.5,8.7-16.7c8.4-11.3,20.2-27.3,17.3-42.4c-1.6-8.2-7.3-14.9-13.3-20.4
		c-8-7.3-27.5-22.4-15.3-34.9c1.8-1.8,4.4-3.3,6.9-3.8c2-0.4,4.4-0.4,6.2,0.7c6.2,3.6,7.8,10.9,16,11.1c4.2,0.2,8.7-2,11.1-5.3
		c4-5.3,3.8-12.7,2-18.9c-0.9-3.6-2.2-7.1-1.3-10.7c1.3-5.6,7.8-8.4,13.3-8.4c5.8,0,11.1,2.4,16.4,4.2c15.1,4.7,32.4,3.8,46-4.4
		c7.1-4.4,13.5-11.3,13.8-19.8c0.2-7.1-3.6-13.8-8.4-19.1c-12.4-13.5-31.1-20-49.3-22.2c-18-2-36.6-0.2-53.3,6.4
		c-16.9,6.7-32,18.2-41.7,33.5c-8.2,12.9-12.4,28-13.3,43.1c-0.9,15.5,2.9,30,5.6,45.1c2.2,12.2-2.7,26-11.3,34.6
		c-6.7,6.7-14.4,11.8-21.3,18.2c-7.1,6.7-12.9,15.5-13.3,25.5c-0.4,7.1,2.9,10.9,5.1,16.9c2,4.9-2.4,8.4-5.6,11.5
		C454.6,311.3,454.6,311.3,454.6,311.5z"/>
	<path class="st1" d="M650.2,135.7c4.4,20,4.7,36.6,4,48c-0.9,14.7-2.7,42-20,67.3c-9.8,14.2-17.8,18.2-20,19.1
		c-18.7,8.7-38.2-0.2-43.1-2.4"/>
	<path class="st1" d="M595,273.8c1.6,10.4,1.8,26-7.5,40.4c-2.2,3.3-9.8,14.7-24.9,20.6c-7.5,2.9-14.4,3.8-20.4,3.6"/>
	<path class="st1" d="M412,571.5c-8.2-35.1-14.9-74.2-18.4-117c-3.6-41.1-7.8-76.6-1.8-113.9c1.3-8.7,6.2-17.1,15.5-22.2
		c6.9-4,14.7-8,22.6-12c9.8-4.7,19.1-8.9,28-12.7"/>
	<path class="st1" d="M595.2,275.8c12,4.2,20.6,6.7,34.9,11.5c18.4,6.7,25.1,9.3,34.2,16.2c17.1,13.1,23.3,31.5,27.5,44.6
		c21.3,65.1,39.1,131.7,43.1,146.8c8.2,10.9,17.1,21.8,26.4,32.9c10.4,12.4,20.6,24,30.6,35.1"/>
	<path class="st1" d="M454.6,723.4c-24-16.9-52-36.2-72.4-57.3c-17.5-18-37.3-43.3-30.6-70.2c3.3-13.8,14.7-23.3,28.2-26.4
		c26.4-6,57.1,11.1,80.8,21.3c46.8,19.8,94.4,37.7,142.8,53.5"/>
	<path class="st2" d="M394.3,777.3c-14.4-10.9-17.8-34.2-4.7-47.3c7.3-7.3,19.5-9.1,29.3-9.5c12.2-0.7,24.9,3.3,37.1,2.4
		c12.4-0.7,23.8-6.4,36.2-7.3c6.4-0.4,13.1,0,18.7,2.9c4.7,2.4,8.2,6.2,11.3,10.7c1.8,2.4,6,8.7,3.1,11.5c-1.1,1.1-2.9,3.3-4.4,3.1
		c-7.8-1.3-15.3-2.7-23.3-4.4c-7.5-1.6-15.3-2.7-23.1-3.3c-10.2-0.7-23.5-0.2-29.5,9.5c-6.4,10.9,0.2,23.1,10.2,28.9"/>
	<path class="st1" d="M495.1,605l108.3,16.9l5.8-26.4c-45.5-23.3-90.8-46.6-136.3-69.9c-1.3-27.3-2.4-54.8-3.8-82.1"/>
	<path class="st1" d="M609.2,595.3l38.6,7.1l34.6,24.6"/>
	<path class="st1" d="M603.4,621.7l39.5,8.4l19.8,24"/>
	<path class="st1" d="M643.4,632.3L549,662.8l108.3,27.5l69.7-109l186.1-49.1l-47.3,79.3"/>
	<path class="st1" d="M525.9,736.9l134.3-46l177-43.1"/>
	<path class="st1" d="M682.4,603.7l-22.9-73.5V430.1l19.5,100.1l62.6,47.5"/>
	<path class="st1" d="M838.7,768.2c2.7-2.4,28.4-27.1,22.9-57.7c-2.2-12.7-9.1-21.3-11.8-24.6c-16-20.2-36.9-24.4-61.1-26"/>
	<path class="st1" d="M854.7,655.7c12.9,0,23.5-10.4,23.5-23.5s-10.4-23.5-23.5-23.5c-13.1,0-23.5,10.4-23.5,23.5
		S841.6,655.7,854.7,655.7z"/>
	<path class="st1" d="M549,662.8v16.4l86.8,20.2"/>
	<path class="st1" d="M823,666.1l13.8-3.6l5.3-10.2"/>
	<path class="st2" d="M596.1,274.4c-3.6,0-8.4,0-14-1.3c-6.2-1.3-10.9-3.6-14-5.3c0.7,5.1,2,12,6,20c4.9,9.5,11.3,16.2,16,20.2
		c2-3.6,4.4-8.4,5.8-14.4C597.6,285.5,597,278.9,596.1,274.4z"/>
</g>
<g>
	<path class="st1" d="M160.9,753.9H91.3v15.9h69.6V753.9z"/>
	<path class="st1" d="M156,769.8l5.1,74.5l1.2,17.3l4.7,69H85.2l4.7-69l1.2-17.3l5.1-74.5"/>
	<path class="st1" d="M105.1,749.2c-5.6-3.7-10.6-8.6-12.4-15.1c-2.3-8.4,2.5-12.2,0.1-21.7c-2.1-8.2-7.9-13.9-11-17
		c-6.6-6.5-10-6-13.6-11.9c-2.7-4.4-5.5-12.1-2.3-15.9c4.1-4.8,15.6-0.4,16.6-0.1c14.8,5.7,27.2,24.4,26.3,42.2
		c-0.4,8.6-3.7,12-1.9,20.4c1.8,8.2,7,14.2,11.2,18"/>
	<path class="st1" d="M118.5,722.7c2-6.2,2.9-12.8,2.7-19.3c-0.2-9.1-2.8-17.6-6.2-26c-3.1-7.7-9.3-15.2-8.6-23.9
		c0.6-7.8,6.1-14.4,7.7-22c1.6-7.8,0.7-16-1.6-23.6c-1.1-3.7-2.6-7.3-3.2-11c-0.7-3.8-0.5-7.9,1.5-11.2c3.7-6.3,13.3-7.5,19.4-3.4
		c6.1,4.1,8.9,11.9,8.4,19.3c-0.4,7.3-3.6,14.2-7.2,20.6c-3.9,6.8-8.5,14.1-7.1,21.8c0.7,3.9,3,7.3,4.8,10.9
		c4.1,8.1,6.2,17.3,5.9,26.4c-0.4,10-3.5,19.6-5.6,29.3c-2.9,13.1-1.5,24.7,1.7,37.6"/>
	<path class="st1" d="M139.9,744.4c-6.3-9.8-1.8-21.5,4.1-30.3c4.9-7.3,10.9-13.8,14.6-21.7c5.7-12.2,5-26.5,9.3-39.3
		c1.8-5.3,4.6-10.6,9.4-13.8c4.7-3.1,11.6-3.5,15.7,0.4c5.2,4.9,4.4,14,2,20c-3.8,9.9-9.5,19-16.2,27.2
		c-6.3,7.8-13.4,14.9-19.6,22.7c-8.3,10.4-18.6,23.1-11.3,39.5"/>
	<path class="st1" d="M38.9,611.7c18.4-7.3,35.7-3.5,41.7,6.3c3.2,5.3,4.2,14,0.3,20.7c-0.6,1.1-4.5,7.8-10.7,7.7
		c-2.8-0.1-6.9-1.6-8-5.3c-1-3.5,1.1-7.1,3.7-8.7c3.6-2.2,8-0.5,10,0.3c10.5,4.3,13.7,17.9,14.3,20.7"/>
	<path class="st1" d="M146.8,657.1c-0.3-4.7-0.3-14.3,5-24.5c9.4-17.9,27.9-22.8,31-23.5"/>
	<path class="st1" d="M162.3,861.6H89.9l1.2-19.8h70L162.3,861.6z"/>
	<path class="st1" d="M107.3,833.1c3,0,5.5-2.5,5.5-5.5s-2.5-5.5-5.5-5.5s-5.5,2.5-5.5,5.5S104.2,833.1,107.3,833.1z"/>
	<path class="st1" d="M126.1,833.1c3,0,5.5-2.5,5.5-5.5s-2.5-5.5-5.5-5.5s-5.5,2.5-5.5,5.5S123.1,833.1,126.1,833.1z"/>
	<path class="st1" d="M144.9,833.1c3,0,5.5-2.5,5.5-5.5s-2.5-5.5-5.5-5.5s-5.5,2.5-5.5,5.5S141.9,833.1,144.9,833.1z"/>
	<path class="st1" d="M107.3,917c3,0,5.5-2.5,5.5-5.5s-2.5-5.5-5.5-5.5s-5.5,2.5-5.5,5.5S104.2,917,107.3,917z"/>
	<path class="st1" d="M126.1,917c3,0,5.5-2.5,5.5-5.5s-2.5-5.5-5.5-5.5s-5.5,2.5-5.5,5.5S123.1,917,126.1,917z"/>
	<path class="st1" d="M144.9,917c3,0,5.5-2.5,5.5-5.5s-2.5-5.5-5.5-5.5s-5.5,2.5-5.5,5.5C139.5,914.5,141.9,917,144.9,917z"/>
	<path class="st1" d="M163.5,891.1l-7.5-4l-7.5,4l-7.5-4l-7.5,4l-7.5-4l-7.5,4l-7.5-4l-7.5,4l-7.5-4l-7.5,4"/>
	<path class="st1" d="M157.5,802.2l-6.3-4l-6.3,4l-6.3-4l-6.3,4l-6.3-4l-6.3,4l-6.3-4l-6.3,4l-6.3-4l-6.3,4"/>
</g>
</svg>
