<?xml version="1.0" encoding="utf-8"?>
<!-- Generator: Adobe Illustrator 21.0.0, SVG Export Plug-In . SVG Version: 6.00 Build 0)  -->
<svg version="1.1" id="Warstwa_1" xmlns="http://www.w3.org/2000/svg" xmlns:xlink="http://www.w3.org/1999/xlink" x="0px" y="0px"
	 viewBox="0 0 1024 1024" style="enable-background:new 0 0 1024 1024;" xml:space="preserve">
<style type="text/css">
	.st0{fill:#DCF4E9;}
	.st1{fill:none;stroke:#98E2C6;stroke-miterlimit:10;}
	.st2{fill:#98E2C6;}
</style>
<path class="st0" d="M512.1,799c164,0,297-133,297-297s-133-297-297-297s-297,133-297,297S348.1,799,512.1,799z"/>
<path class="st1" d="M431.2,611.5v13.7"/>
<path class="st2" d="M611.6,623.9H346.4v37.6h265.3V623.9z"/>
<path class="st2" d="M735.7,391.5H576.6V429h159.1V391.5z"/>
<path class="st1" d="M620.4,397.1c-4.6-4.7-13.7-15.4-17-31.5c-1.6-7.9-1.4-14.8-0.8-19.9H679c0.6,5.1,0.8,12-0.8,19.9
	c-3.4,16.1-12.4,26.8-17,31.5"/>
<path class="st1" d="M611.1,345.7c-2.6-4.1-4.7-7.7-6.3-10.7c-3.6-6.6-7.1-13.5-9.2-20.7c-1.6-5.3-2.3-10.9-1.2-16.3
	c0.2-1.2,0.6-2.4,1.3-3.4c1.8-2.3,4.3-1.3,6.3,0.2c11.7,8.8,19.3,24.6,24.1,38.1c1.4,3.9,2.6,8.1,3.8,12.8"/>
<path class="st1" d="M643.3,345.7c1.3-16.9,2.2-33.9,1-50.9c-0.3-4.5-0.6-12.8-5.6-14.8c-5-2-9,7-10.2,10.4
	c-4.7,13.4-3.6,28.5-2.7,42.5"/>
<path class="st1" d="M661.9,329.3c2.4-2.5,5.2-4.6,8.2-6.3c2.5-1.4,7.4-3.5,8.8,0.4c0.4,1.1,0.3,2.3,0.2,3.4
	c-0.4,2.8-1.3,5.5-2.4,8.1c-1.5,3.7-3.4,7.3-5.5,10.7"/>
<path class="st1" d="M657.6,341.7c0-0.1,0.1-0.2,0.1-0.4c0.7-2.1,1.5-4.1,2.2-6.1c0.7-1.9,1.3-3.9,2-5.8c3-9.1,5.4-18.5,4.8-28
	c-0.1-1.8-0.3-4.5-1.8-5.8c-2.9-2.4-6.8,2.4-8.5,4.4c-2.3,2.8-4,6-5.6,9.3c-2.3,4.6-4.3,9.4-6.2,14.2"/>
<path class="st1" d="M677.8,363.5l-7.4-4l-7.4,4l-7.4-4l-7.4,4l-7.4-4l-7.4,4l-7.4-4l-7.4,4l-7.4-4l-7.4,4"/>
<path class="st1" d="M673.9,377.3l-6.6-4l-6.6,4l-6.6-4l-6.6,4l-6.6-4l-6.6,4l-6.6-4l-6.6,4l-6.6-4l-6.6,4"/>
<path class="st1" d="M406,320.9v-82.8c0-12.1,9.8-21.9,21.9-21.9h257.7c12.1,0,21.9,9.8,21.9,21.9v130.6"/>
<path class="st1" d="M537.3,246.2h38.8"/>
<path class="st1" d="M707.5,616.4v180c0,12.1-9.8,21.9-21.9,21.9H427.9c-12.1,0-21.9-9.8-21.9-21.9v-98.8"/>
<path class="st1" d="M537.3,788.2h38.8"/>
<path class="st1" d="M707.1,449v41.8"/>
<path class="st2" d="M399.5,418.2c-8.6,8-7.8,22.3,0.8,30.1c12.4,11.2,35.5,3,38.5-13.4c0.1-0.5,0.2-1.1,0.2-1.6
	c0.8-8.9-5-17.2-3.7-26.1c0.4-2.8,2.2-5.2,3.9-7.5c3.8-5.1,9.1-12.3,7.8-19.1c-0.7-3.7-3.3-6.7-6-9.2c-3.6-3.3-12.4-10.1-6.9-15.7
	c0.8-0.8,2-1.5,3.1-1.7c0.9-0.2,2-0.2,2.8,0.3c2.8,1.6,3.5,4.9,7.2,5c1.9,0.1,3.9-0.9,5-2.4c1.8-2.4,1.7-5.7,0.9-8.5
	c-0.4-1.6-1-3.2-0.6-4.8c0.6-2.5,3.5-3.8,6-3.8c2.6,0,5,1.1,7.4,1.9c6.8,2.1,14.6,1.7,20.7-2c3.2-2,6.1-5.1,6.2-8.9
	c0.1-3.2-1.6-6.2-3.8-8.6c-5.6-6.1-14-9-22.2-10c-8.1-0.9-16.5-0.1-24,2.9c-7.6,3-14.4,8.2-18.8,15.1c-3.7,5.8-5.6,12.6-6,19.4
	c-0.4,7,1.3,13.5,2.5,20.3c1,5.5-1.2,11.7-5.1,15.6c-3,3-6.5,5.3-9.6,8.2c-3.2,3-5.8,7-6,11.5c-0.2,3.2,1.3,4.9,2.3,7.6
	c0.9,2.2-1.1,3.8-2.5,5.2C399.5,418.1,399.5,418.1,399.5,418.2z"/>
<path class="st1" d="M487.6,339c2,9,2.1,16.5,1.8,21.6c-0.4,6.6-1.2,18.9-9,30.3c-4.4,6.4-8,8.2-9,8.6c-8.4,3.9-17.2-0.1-19.4-1.1"
	/>
<path class="st1" d="M462.7,401.2c0.7,4.7,0.8,11.7-3.4,18.2c-1,1.5-4.4,6.6-11.2,9.3c-3.4,1.3-6.5,1.7-9.2,1.6"/>
<path class="st1" d="M380.3,535.3c-3.7-15.8-6.7-33.4-8.3-52.7c-1.6-18.5-3.5-34.5-0.8-51.3c0.6-3.9,2.8-7.7,7-10
	c3.1-1.8,6.6-3.6,10.2-5.4c4.4-2.1,8.6-4,12.6-5.7"/>
<path class="st1" d="M462.8,402.1c5.4,1.9,9.3,3,15.7,5.2c8.3,3,11.3,4.2,15.4,7.3c7.7,5.9,10.5,14.2,12.4,20.1
	c9.6,29.3,17.6,59.3,19.4,66.1c3.7,4.9,7.7,9.8,11.9,14.8c4.7,5.6,9.3,10.8,13.8,15.8"/>
<path class="st1" d="M399.5,603.7c-10.8-7.6-23.4-16.3-32.6-25.8c-7.9-8.1-16.8-19.5-13.8-31.6c1.5-6.2,6.6-10.5,12.7-11.9
	c11.9-2.7,25.7,5,36.4,9.6c21.1,8.9,42.5,17,64.3,24.1"/>
<path class="st2" d="M372.3,628c-6.5-4.9-8-15.4-2.1-21.3c3.3-3.3,8.8-4.1,13.2-4.3c5.5-0.3,11.2,1.5,16.7,1.1
	c5.6-0.3,10.7-2.9,16.3-3.3c2.9-0.2,5.9,0,8.4,1.3c2.1,1.1,3.7,2.8,5.1,4.8c0.8,1.1,2.7,3.9,1.4,5.2c-0.5,0.5-1.3,1.5-2,1.4
	c-3.5-0.6-6.9-1.2-10.5-2c-3.4-0.7-6.9-1.2-10.4-1.5c-4.6-0.3-10.6-0.1-13.3,4.3c-2.9,4.9,0.1,10.4,4.6,13"/>
<path class="st1" d="M417.7,550.4l48.8,7.6l2.6-11.9c-20.5-10.5-40.9-21-61.4-31.5c-0.6-12.3-1.1-24.7-1.7-37"/>
<path class="st1" d="M469.1,546l17.4,3.2l15.6,11.1"/>
<path class="st1" d="M466.5,557.9l17.8,3.8l8.9,10.8"/>
<path class="st1" d="M484.5,562.7L442,576.4l48.8,12.4l31.4-49.1l83.8-22.1l-21.3,35.7"/>
<path class="st1" d="M431.6,609.8l60.5-20.7l79.7-19.4"/>
<path class="st1" d="M502.1,549.8l-10.3-33.1v-45.1l8.8,45.1l28.2,21.4"/>
<path class="st1" d="M572.5,623.9c1.2-1.1,12.8-12.2,10.3-26c-1-5.7-4.1-9.6-5.3-11.1c-7.2-9.1-16.6-11-27.5-11.7"/>
<path class="st1" d="M579.7,573.2c5.8,0,10.6-4.7,10.6-10.6s-4.7-10.6-10.6-10.6s-10.6,4.7-10.6,10.6S573.8,573.2,579.7,573.2z"/>
<path class="st1" d="M442,576.4v7.4l39.1,9.1"/>
<path class="st1" d="M565.4,577.9l6.2-1.6l2.4-4.6"/>
<path class="st1" d="M463.2,401.5c-1.6,0-3.8,0-6.3-0.6c-2.8-0.6-4.9-1.6-6.3-2.4c0.3,2.3,0.9,5.4,2.7,9c2.2,4.3,5.1,7.3,7.2,9.1
	c0.9-1.6,2-3.8,2.6-6.5C463.9,406.5,463.6,403.5,463.2,401.5z"/>
<path class="st1" d="M299,641.5h-69.6v15.9H299V641.5z"/>
<path class="st1" d="M294.1,657.4l5.1,74.5l1.2,17.3l4.7,69h-81.8l4.7-69l1.2-17.3l5.1-74.5"/>
<path class="st1" d="M243.2,636.8c-5.6-3.7-10.6-8.6-12.4-15.1c-2.3-8.4,2.5-12.2,0.1-21.7c-2.1-8.2-7.9-13.9-11-17
	c-6.6-6.5-10-6-13.6-11.9c-2.7-4.4-5.5-12.1-2.3-15.9c4.1-4.8,15.6-0.4,16.6-0.1c14.8,5.7,27.2,24.4,26.3,42.2
	c-0.4,8.6-3.7,12-1.9,20.4c1.8,8.2,7,14.2,11.2,18"/>
<path class="st1" d="M256.6,610.3c2-6.2,2.9-12.8,2.7-19.3c-0.2-9.1-2.8-17.6-6.2-26c-3.1-7.7-9.3-15.2-8.6-23.9
	c0.6-7.8,6.1-14.4,7.7-22c1.6-7.8,0.7-16-1.6-23.6c-1.1-3.7-2.6-7.3-3.2-11c-0.7-3.8-0.5-7.9,1.5-11.2c3.7-6.3,13.3-7.5,19.4-3.4
	c6.1,4.1,8.9,11.9,8.4,19.3c-0.4,7.3-3.6,14.2-7.2,20.6c-3.9,6.8-8.5,14.1-7.1,21.8c0.7,3.9,3,7.3,4.8,10.9
	c4.1,8.1,6.2,17.3,5.9,26.4c-0.4,10-3.5,19.6-5.6,29.3c-2.9,13.1-1.5,24.7,1.7,37.6"/>
<path class="st1" d="M278,632c-6.3-9.8-1.8-21.5,4.1-30.3c4.9-7.3,10.9-13.8,14.6-21.7c5.7-12.2,5-26.5,9.3-39.3
	c1.8-5.3,4.6-10.6,9.4-13.8c4.7-3.1,11.6-3.5,15.7,0.4c5.2,4.9,4.4,14,2,20c-3.8,9.9-9.5,19-16.2,27.2c-6.3,7.8-13.4,14.9-19.6,22.7
	c-8.3,10.4-18.6,23.1-11.3,39.5"/>
<path class="st1" d="M177,499.3c18.4-7.3,35.7-3.5,41.7,6.3c3.2,5.3,4.2,14,0.3,20.7c-0.6,1.1-4.5,7.8-10.7,7.7
	c-2.8-0.1-6.9-1.6-8-5.3c-1-3.5,1.1-7.1,3.7-8.7c3.6-2.2,8-0.5,10,0.3c10.5,4.3,13.7,17.9,14.3,20.7"/>
<path class="st1" d="M284.9,544.7c-0.3-4.7-0.3-14.3,5-24.5c9.4-17.9,27.9-22.8,31-23.5"/>
<path class="st1" d="M300.4,749.2H228l1.2-19.8h70L300.4,749.2z"/>
<path class="st1" d="M245.4,720.7c3,0,5.5-2.5,5.5-5.5s-2.5-5.5-5.5-5.5s-5.5,2.5-5.5,5.5S242.3,720.7,245.4,720.7z"/>
<path class="st1" d="M264.2,720.7c3,0,5.5-2.5,5.5-5.5s-2.5-5.5-5.5-5.5c-3,0-5.5,2.5-5.5,5.5S261.2,720.7,264.2,720.7z"/>
<path class="st1" d="M283,720.7c3,0,5.5-2.5,5.5-5.5s-2.5-5.5-5.5-5.5c-3,0-5.5,2.5-5.5,5.5S280,720.7,283,720.7z"/>
<path class="st1" d="M245.4,804.6c3,0,5.5-2.5,5.5-5.5c0-3-2.5-5.5-5.5-5.5s-5.5,2.5-5.5,5.5C239.9,802.1,242.3,804.6,245.4,804.6z"
	/>
<path class="st1" d="M264.2,804.6c3,0,5.5-2.5,5.5-5.5c0-3-2.5-5.5-5.5-5.5c-3,0-5.5,2.5-5.5,5.5
	C258.7,802.1,261.2,804.6,264.2,804.6z"/>
<path class="st1" d="M283,804.6c3,0,5.5-2.5,5.5-5.5c0-3-2.5-5.5-5.5-5.5c-3,0-5.5,2.5-5.5,5.5C277.6,802.1,280,804.6,283,804.6z"/>
<path class="st1" d="M301.6,778.7l-7.5-4l-7.5,4l-7.5-4l-7.5,4l-7.5-4l-7.5,4l-7.5-4l-7.5,4l-7.5-4l-7.5,4"/>
<path class="st1" d="M295.6,689.8l-6.3-4l-6.3,4l-6.3-4l-6.3,4l-6.3-4l-6.3,4l-6.3-4l-6.3,4l-6.3-4l-6.3,4"/>
<g>
	<path class="st1" d="M645.3,506.1h79v19.3h-60.2"/>
	<path class="st1" d="M666.3,598.9h57.9v-73.5"/>
	<path class="st1" d="M710.7,512.5l6,6"/>
	<path class="st1" d="M716.7,512.5l-6,6"/>
	<path class="st1" d="M699.5,548.8c1.7,0,3.1-1.4,3.1-3.1c0-1.7-1.4-3.1-3.1-3.1c-1.7,0-3.1,1.4-3.1,3.1
		C696.4,547.4,697.8,548.8,699.5,548.8z"/>
	<path class="st1" d="M699.5,564.1c1.7,0,3.1-1.4,3.1-3.1c0-1.7-1.4-3.1-3.1-3.1c-1.7,0-3.1,1.4-3.1,3.1
		C696.4,562.8,697.8,564.1,699.5,564.1z"/>
	<path class="st1" d="M699.5,579.5c1.7,0,3.1-1.4,3.1-3.1c0-1.7-1.4-3.1-3.1-3.1s-3.1,1.4-3.1,3.1
		C696.4,578.1,697.8,579.5,699.5,579.5z"/>
	<path class="st1" d="M712.8,544.1c7.6,0,7.6,9.4,15.2,9.4c7.6,0,7.6-9.4,15.2-9.4c7.6,0,7.6,9.4,15.2,9.4s7.6-9.4,15.2-9.4
		c7.6,0,7.6,9.4,15.2,9.4"/>
	<path class="st1" d="M712.8,560.6c7.6,0,7.6,9.4,15.2,9.4c7.6,0,7.6-9.4,15.2-9.4c7.6,0,7.6,9.4,15.2,9.4s7.6-9.4,15.2-9.4
		c7.6,0,7.6,9.4,15.2,9.4"/>
</g>
</svg>
