<svg id="Warstwa_1" data-name="Warstwa 1" xmlns="http://www.w3.org/2000/svg" viewBox="0 0 300 300"><defs><style>.cls-1{fill:#f5f6f7;}.cls-2{fill:#0b1728;}.cls-3{fill:none;stroke:#0b1728;stroke-miterlimit:10;}</style></defs><title>b-analytics</title><path class="cls-1" d="M150,287A137,137,0,1,0,13,150,137,137,0,0,0,150,287Z"/><path class="cls-2" d="M144,68.2a4.45,4.45,0,0,0-4.41,7.4,1.31,1.31,0,0,1,.25,1.52c-1.35,2.63-3.4,6-5.54,10.86-6.25,14.19-10.47,29.42-27.72,33.37-15,3.43-24.85-10.85-17.86-24.08,6-11.26,18.7-13.88,26.72-22.83,7.31-8.15,8.35-20.72,18.83-26.41a13.33,13.33,0,0,1,9.88-1.31c7.79,2.15,8.91,10.44,5.25,16.49a17.53,17.53,0,0,1-4,4.67A1.57,1.57,0,0,1,144,68.2Z"/><path class="cls-3" d="M149.91,56.42a68.66,68.66,0,0,1,5,6.91,30.6,30.6,0,0,1,3,7.54c.13.5.25,1,.36,1.51.47,2.17,1,5.25-.84,7-3.53,3.37-15.71,4.23-15.71,4.23"/><path class="cls-3" d="M148.46,82.69l-2.15,11.63"/><path class="cls-3" d="M153.71,81.36l19.1-7.49L191.76,50l6.49,5.58L178.37,84.1l-28.14,20.57"/><path class="cls-3" d="M192.72,50.83,198.25,36l1.11,1.1a3.07,3.07,0,0,1,.79,3l-.92,3.3.82.74a4.59,4.59,0,0,1,.65,6.11l-3.31,4.57"/><path class="cls-3" d="M131.71,94a18.27,18.27,0,0,1,3.23-1.23,12.56,12.56,0,0,1,5.87-.41,12,12,0,0,1,7.59,5,11.7,11.7,0,0,1,1.41,3.74c1.37,7.58-3.87,36.55-4.15,38L183,142.72A13.9,13.9,0,0,1,178.24,156c-5.29.59-13.56,1.54-23.7,2.78-20.56,2.53-23.3,3.18-26.3,1.71-10.76-5.31-5.18-29.39-4.51-50.81"/><path class="cls-3" d="M183.24,143.93l7.58-1.23,4.71-4.45.65,2a4.67,4.67,0,0,1-1.2,4.78l-1.78,1.73a6.6,6.6,0,0,0-1.57,2.37,6.09,6.09,0,0,1-5.17,3.88l-6.67,1.41"/><path class="cls-3" d="M94.13,119.83,76.72,166.56a8.73,8.73,0,0,0,5.48,11.37c13.45,4.32,40.12,9.19,59.55-10.82v-6.74"/><path class="cls-3" d="M79.43,176.44A27.35,27.35,0,0,0,80.27,194c6.44,15.53,25.73,17.08,27.37,17.18,4.36.28,7.89-.4,13-1.8a168.07,168.07,0,0,0,37.56-15.59c-.42,28.36-1.43,56.71-1.86,85.05l11.78,6.33c4.58-29,8.4-45.69,12.07-68.92"/><path class="cls-3" d="M141.75,166.27l8.88,3,47.63,75.83,11.24-5.67-36.76-82.79"/><path class="cls-3" d="M178.48,142.23l12.34-18.13,10.85,3.56-7.76,12.12"/><path class="cls-3" d="M190.09,41.83A10.28,10.28,0,1,1,205,45.3"/><path class="cls-2" d="M156.33,278.12l-.49,10.62,23.28,11.09.2-1.64a9.66,9.66,0,0,0-4.32-9.26l-6.89-4.49Z"/><path class="cls-2" d="M198,245.27l4.27,6.58L226,240.5a8.42,8.42,0,0,0-10.06-3.39l-6.64,2.48Z"/><path class="cls-3" d="M177.34,167l4.76,1.22a11.07,11.07,0,0,1,8.08,13.09L188,191.1"/><path class="cls-3" d="M93.4,152.56A17.16,17.16,0,0,0,96.79,161a17.88,17.88,0,0,0,11.64,6.56"/><path class="cls-3" d="M100.4,137.77a17.13,17.13,0,0,0-.35,9.11,17.88,17.88,0,0,0,8,10.73"/><path class="cls-2" d="M145.95,210.87H65v13.46h80.91Z"/><path class="cls-3" d="M185.07,47.17a17.41,17.41,0,1,1,22.84,4.75"/><path class="cls-3" d="M150.24,35.26h5L157.84,28l.89,12.92,3.37-7.53,2.27,1.88h4.4l2.7-6.42,1.85,11.35,3.09-5.74"/><path class="cls-3" d="M221.11,35.26l2.44,3.85,1.62-11.37,2.23,7.51h2.84l1.22-5.08L234,39.11l1.3-3.85h2.06l2.14-7.51,1.68,11.37,1.22-3.85h3.36"/><path class="cls-3" d="M132.32,238.46c-3.72-7-10.47-12.4-18.06-13.08C107,224.74,99.11,229.28,96,237c-3.36,8.17.41,19.43,8.83,20.54,5.66.74,9.14-5.72,9.18-11.25a19.28,19.28,0,0,0-5.7-13.64c-7.24-7.17-18.33-6.11-26.95-1.25-10.15,5.73-16.75,17.21-18.46,29.32a44.13,44.13,0,0,0,5.43,28.18"/><path class="cls-3" d="M190.55,129.33l4.9,1.68"/><path class="cls-3" d="M188.1,132.73l4.9,1.68"/></svg>