<svg id="Warstwa_1" data-name="Warstwa 1" xmlns="http://www.w3.org/2000/svg" viewBox="0 0 300 300"><defs><style>.cls-1{fill:#f5f6f7;}.cls-2{fill:none;stroke:#0b1728;stroke-miterlimit:10;}.cls-3{fill:#0b1728;}</style></defs><title>b-artificial</title><path class="cls-1" d="M150,287A137,137,0,1,0,13,150,137,137,0,0,0,150,287Z"/><path class="cls-2" d="M145.33,243.21v10.53"/><path class="cls-3" d="M283.92,252.74H80.18v28.89H284V252.74Z"/><path class="cls-3" d="M121,94.7c-6.61,6.15-6,17.13.61,23.12,9.53,8.6,27.27,2.3,29.58-10.29a6.72,6.72,0,0,0,.15-1.23c.61-6.84-3.84-13.21-2.84-20.05.31-2.15,1.69-4,3-5.76,2.92-3.92,7-9.45,6-14.67-.54-2.84-2.54-5.15-4.61-7.07-2.77-2.54-9.53-7.76-5.3-12.06a4.87,4.87,0,0,1,2.38-1.31,3,3,0,0,1,2.15.23c2.15,1.23,2.69,3.76,5.53,3.84a4.66,4.66,0,0,0,3.84-1.84c1.38-1.84,1.31-4.38.69-6.53a7.66,7.66,0,0,1-.46-3.69c.46-1.92,2.69-2.92,4.61-2.92s3.84.85,5.69,1.46c5.22,1.61,11.22,1.31,15.9-1.54,2.46-1.54,4.69-3.92,4.76-6.84A9.67,9.67,0,0,0,189.73,21c-4.3-4.69-10.76-6.91-17.06-7.68a38.52,38.52,0,0,0-18.44,2.23A30.24,30.24,0,0,0,139.8,27.1,31.12,31.12,0,0,0,135.19,42c-.31,5.38,1,10.37,1.92,15.6a14.13,14.13,0,0,1-3.92,12c-2.3,2.3-5,4.07-7.38,6.3s-4.46,5.38-4.61,8.84c-.15,2.46,1,3.76,1.77,5.84.69,1.69-.85,2.92-1.92,4C121,94.63,121,94.63,121,94.7Z"/><path class="cls-2" d="M188.66,33.86A60.21,60.21,0,0,1,190,50.45c-.31,5.07-.92,14.52-6.91,23.28-3.38,4.92-6.15,6.3-6.91,6.61-6.45,3-13.21-.08-14.9-.85"/><path class="cls-2" d="M169.53,81.64a20,20,0,0,1-2.61,14,18.55,18.55,0,0,1-8.6,7.14,17.82,17.82,0,0,1-7.07,1.23"/><path class="cls-2" d="M106.22,184.67a278.15,278.15,0,0,1-6.38-40.49c-1.23-14.21-2.69-26.51-.61-39.41a10.41,10.41,0,0,1,5.38-7.68c2.38-1.38,5.07-2.77,7.84-4.15q5.07-2.42,9.68-4.38"/><path class="cls-2" d="M169.6,82.34c4.15,1.46,7.14,2.3,12.06,4,6.38,2.3,8.68,3.23,11.83,5.61,5.92,4.53,8.07,10.91,9.53,15.44,7.38,22.51,13.52,45.56,14.9,50.78,2.84,3.76,5.92,7.53,9.14,11.37,3.61,4.3,7.14,8.3,10.6,12.14"/><path class="cls-2" d="M121,237.22c-8.3-5.84-18-12.52-25-19.82-6.07-6.22-12.91-15-10.6-24.28A12.63,12.63,0,0,1,95.08,184c9.14-2.07,19.74,3.84,28,7.38,16.21,6.84,32.65,13.06,49.4,18.52"/><path class="cls-3" d="M100.08,255.89c-5-3.76-6.15-11.83-1.61-16.36,2.54-2.54,6.76-3.15,10.14-3.3,4.23-.23,8.6,1.15,12.83.85s8.22-2.23,12.52-2.54a12.21,12.21,0,0,1,6.45,1,11.23,11.23,0,0,1,3.92,3.69c.61.85,2.07,3,1.08,4-.38.38-1,1.15-1.54,1.08-2.69-.46-5.3-.92-8.07-1.54a69,69,0,0,0-8-1.15c-3.53-.23-8.14-.08-10.22,3.3-2.23,3.76.08,8,3.53,10"/><path class="cls-2" d="M135,196.27l37.49,5.84,2-9.14c-15.75-8.07-31.42-16.13-47.17-24.2-.46-9.45-.85-19-1.31-28.43"/><path class="cls-2" d="M174.44,192.89l13.37,2.46,12,8.53"/><path class="cls-2" d="M172.45,202,186.12,205l6.84,8.3"/><path class="cls-2" d="M186.28,205.72l-32.65,10.53,37.49,9.53L215.24,188l64.38-17L263.26,198.5"/><path class="cls-2" d="M145.63,241.91,192.11,226l61.23-14.9"/><path class="cls-2" d="M199.8,195.81l-7.91-25.43V135.73l6.76,34.65,21.67,16.44"/><path class="cls-2" d="M253.88,252.74c.92-.85,9.83-9.37,7.91-20a18.79,18.79,0,0,0-4.07-8.53c-5.53-7-12.75-8.45-21.13-9"/><path class="cls-2" d="M259.42,213.79a8.14,8.14,0,1,0-8.14-8.14A8.15,8.15,0,0,0,259.42,213.79Z"/><path class="cls-2" d="M153.62,216.25v5.69l30,7"/><path class="cls-2" d="M248.43,217.4l4.76-1.23,1.84-3.53"/><path class="cls-2" d="M169.91,81.87a19.85,19.85,0,0,1-4.84-.46,16.77,16.77,0,0,1-4.84-1.84,21,21,0,0,0,2.07,6.91,23.23,23.23,0,0,0,5.53,7,18.19,18.19,0,0,0,2-5A15.9,15.9,0,0,0,169.91,81.87Z"/></svg>