<?xml version="1.0" encoding="utf-8"?>
<!-- Generator: Adobe Illustrator 21.0.0, SVG Export Plug-In . SVG Version: 6.00 Build 0)  -->
<svg version="1.1" id="Warstwa_1" xmlns="http://www.w3.org/2000/svg" xmlns:xlink="http://www.w3.org/1999/xlink" x="0px" y="0px"
	 viewBox="0 0 1024 1024" style="enable-background:new 0 0 1024 1024;" xml:space="preserve">
<style type="text/css">
	.st0{fill:#DCF4E9;}
	.st1{fill:none;stroke:#98E2C6;stroke-width:2;stroke-miterlimit:10;}
	.st2{fill:#98E2C6;}
	.st3{fill:none;stroke:#98E2C6;stroke-width:4;stroke-miterlimit:10;}
</style>
<path class="st0" d="M535.7,771.2c170.2,0,308.1-137.9,308.1-308.1S705.9,155,535.7,155S227.6,292.9,227.6,463.1
	C227.6,633.2,365.6,771.2,535.7,771.2z"/>
<g>
	<path class="st1" d="M707.2,866c1.6-4.4,1.3-9.7,0.6-14.2c-1.7-10.7-2.2-21.7-0.8-32.5c0.7-5.4,1.7-10.9,3.5-16.1
		c1.7-5,3.7-9.9,4.7-15.2c0.2-1.1,0.4-2.2,0.5-3.3c1-9.7-4.1-18.9,2.1-27.5c4.6-6.3,11-8.4,13.3-9c0.2,3.1,0.5,6.2,0.7,9.3
		c0.6,0,2.6,0.2,4.2,1.8c0.9,0.9,1.3,1.8,1.5,2.4c0.6-0.6,5.4-2,7.2-2.1c1.9-0.1,3.5,0.1,4.3,0.5c0.2,1.2-0.8,5.6-1.1,6.5
		c-0.7,2.1-3.2,7-4.3,7.9c-1,3.3-1.5,6.9,0,12.3c1.2,4.6,3.5,6.9,6.8,11.6c6,8.6,10.3,18.3,12.5,28.6c1.2,5.4,1.7,10.9,1.8,16.4
		c0.1,4.5-1.3,10.9,0.9,15.1c0.4,0.7,1.4,2.6,3,2.9c2.7,0.4,5.5-4.2,6.5-5.8c1.6-2.7,3.6-7.2,4.3-17.5c0.4-6.4-0.2-6.2,0.1-14.7
		c0.2-5.2,0.4-9.2,1.5-14.4c2-9.7,6.4-18.9,17.1-20.9c0.7,4-2.7,7.4-5,10.7c-7.4,10.4-5,24.5-5.2,37.3c-0.3,12.3-4.3,33.8-17.7,39
		c-3.2,1.3-6.9,1.9-10.3,1.9c-18.6-0.1-37.1-0.8-55.7-0.8c-0.5,0-1.1,0-1.5-0.2c-1.1-0.5-1.4-2.1-0.9-3.2c0.5-1.1,1.5-2,2.5-2.7
		C705.7,869,706.6,867.6,707.2,866z"/>
	<path class="st1" d="M745.7,821.6c-2.5,1.1-9.9,4.7-14.3,13.2c-6.5,12.4-1.1,24.6-0.4,26.2c-5.3,2.4-10.6,4.8-15.9,7.2"/>
	<path class="st1" d="M719,816.9l-1.1,31.6"/>
	<path class="st1" d="M723.5,770.9l-17.7-9.3"/>
	<path class="st1" d="M723.5,776h-23.3"/>
	<path class="st1" d="M734.3,772.7h22.8"/>
	<path class="st1" d="M733.9,777.8l23.6,8.5"/>
	<path class="st1" d="M742.4,868.9c1.6-0.5,5.9-2.2,9.2-6.6c3.8-5.2,3.7-10.7,3.6-12.2"/>
</g>
<path class="st2" d="M317,877l48.1-267H383l-46.5,267H317z"/>
<path class="st2" d="M515.6,877l-28.5-179.5l-12.5,33L496.1,877H515.6z"/>
<path class="st2" d="M333.6,604.5l128-0.5l-11.3,23.5L333.6,629V604.5z"/>
<path class="st1" d="M613.8,855.7c5.8,0.2,16.5-1.6,13.1-9.9C623.4,837.6,616.7,849,613.8,855.7z M613.8,855.7
	c1.5-4.7,2.7-14.2-3.9-15.2C603.3,839.5,609.7,850.3,613.8,855.7z"/>
<path class="st1" d="M472.5,861.9c5.2,0.9,15.1,0.6,13-7.3C483.5,846.8,476,856.2,472.5,861.9z M472.5,861.9
	c1.9-4,4.2-12.5-1.6-14.2C465.1,846,469.6,856.5,472.5,861.9z"/>
<path class="st2" d="M409.1,328.9c-9.2,0.8-19.5-5.6-22.6-8.1c0,0,2.7,8.6,9.2,13.3c6.5,4.7,13.4,4.9,13.4,4.9V328.9z"/>
<path class="st1" d="M379.5,344.5h-36.3c-6.5,0.2-19.3,5.5-18.1,25.8c0.9,15,3.2,53.7,5,84.6c0.9,15.8,14.1,28.2,29.9,28.2h84
	c-5-6.1-11.9-20.9,0-31l-56.3-1.7c-4.8-0.1-8.7-3.6-9.6-8.3l-11-64.1"/>
<path class="st1" d="M379.3,344c1.5,4.7,7.7,19.4,22.3,18.9c14.7-0.5,19.1-13.2,19.1-16.9h19.9c3.1-0.3,10.6,2.7,16,16.9
	c5.4,14.2,17.6,46,23.1,60.2"/>
<path class="st1" d="M471.8,459.3l10.8-50.1c2.2,2.8,11.4,7.6,30.9,4.2v41.1"/>
<path class="st1" d="M487.2,412.6l4-23.8l-7.7-35.1c1.3-1.7,4.7-4.2,7.7,0s4.3,8.7,4.6,10.5l11.3-25.7c1-3.2,5.4-8.7,14.6-4.8
	c9.2,3.8,8.7,16.9,7.3,23l-18.6,34.1V414"/>
<path class="st1" d="M500.6,361.5c2.6,2.8,7.2,10,5.1,15.8"/>
<path class="st1" d="M506,354.1c2.7-0.1,9.2,1.2,13.7,7.2"/>
<path class="st1" d="M511.6,354.8l6.4-15"/>
<path class="st1" d="M516.1,357.3l5.8-8.1"/>
<path class="st1" d="M437.6,383.4l8.5,18.4c4.6,9.9-2.7,21.3-13.6,21.3h-1"/>
<path class="st1" d="M439.5,459.9h31.8l19.9-7c7.2-2.4,23.8-3.1,32.2,13.8c8.4,16.9,9.1,18.9,8.4,17.8"/>
<path class="st1" d="M468.5,483.4c4.6,1.1,22.7-9.1,25.8-11.5c3,1.3,9.7,5.5,12.3,11.5"/>
<path class="st1" d="M504.9,470.4c2.3,1.5,7.5,5.7,9.5,10.9"/>
<path class="st1" d="M513.5,470.4c2.3,1.5,7.5,5.7,9.5,10.9"/>
<path class="st1" d="M262.7,483.4h573.8"/>
<path class="st1" d="M766.6,483.1h-23.2c-3.8,0-6.8-3.1-6.8-6.8v-33.9h36.8v33.9C773.4,480,770.3,483.1,766.6,483.1z"/>
<path class="st1" d="M776.5,466.6h-3.1v-15.8h3.1c4.4,0,7.9,3.5,7.9,7.9C784.4,463,780.9,466.6,776.5,466.6z"/>
<path class="st1" d="M744.8,466.6l11.9-11.9"/>
<path class="st1" d="M750.7,473.7l11.9-11.9"/>
<path class="st1" d="M749.2,410.9c-2.8,2.8-4.3,6.8-1.2,10c1.1,1.2,2.5,2.1,3.4,3.5c2.4,3.7-0.3,7.8-2.7,10.7"/>
<path class="st1" d="M757.2,423.2c3.8,2.6,4.2,5.5,4.2,6.9c0,2.7-1.5,4.7-4.2,7.9"/>
<path class="st1" d="M688.3,482.5H558c-6.6,0-11.4-6.3-9.6-12.7l24.4-87.5c1.2-4.3,5.1-7.3,9.6-7.3h130.3c6.6,0,11.4,6.3,9.6,12.7
	L698,475.2C696.8,479.6,692.8,482.5,688.3,482.5z"/>
<path class="st2" d="M635.4,443.1c7.9,0,14.3-6.4,14.3-14.3s-6.4-14.3-14.3-14.3s-14.3,6.4-14.3,14.3
	C621,436.7,627.5,443.1,635.4,443.1z"/>
<path class="st1" d="M262.7,501h573.8"/>
<path class="st1" d="M342.3,501l-10.1,37.9c-8.9,33.3,16.4,65.9,50.9,65.4l79.1-1L369,767.9l81.3,27.2l76.5-204.2
	c4.8-12.7-2.5-26.8-15.7-30.3L387.7,528"/>
<path class="st1" d="M448.9,501.5l-5.4,24.1l88.8,15.6c13.7,2.4,23.9,13.9,24.8,27.7l13,210.3l-78.8-5.8L504,652"/>
<path class="st2" d="M393,851.6l13.2-29.6l19.5,20.7c15.6,16.5,36,16.9,43.8,16.8l15.9,7.8c3.4,1.7,5.6,5.2,5.6,9v0.7h-43.2
	L393,851.6z"/>
<path class="st1" d="M418,784.5l-12,42"/>
<path class="st1" d="M450.4,794.7l-11.5,31.6l29.6,33.2"/>
<path class="st1" d="M535.3,776.8l9.9,79.9c19.1,2.8,57.7,9.3,67.2,0.8l-34.6-15.7l-8.2-64.8"/>
<path class="st2" d="M544.5,877l-1.5-28c4.6,0.6,20.7,10,40.4,10c11,0,21.1-1,24-3.9l39.5,13.4c3.7,1.2,6.1,4.7,6.1,8.5H544.5z"/>
<path class="st1" d="M379.4,310.3v34.2 M387.3,320.2c3,3.5,11.5,10.1,21.3,8.8c12.3-1.7,18.1-17.9,18.1-23.7c0-4.6-0.8-18.6-0.8-23
	 M409.4,328.8v21.3"/>
<path class="st2" d="M380.9,309v6.9c-12-12.6-15-20.3-13.5-34.8c1.2-11.6,7.6-17.5,12.1-18.9c-21-5.8-19.5,23.9-17,32
	c2,6.5-1.7,13-3.8,15.4c-5,4.1-15.5,6-18-19.3c-3.2-31.6,18-42.9,30.8-42.2c7.6,0.5,16.3,3.2,18,6.8c7.6-6.8,21.2-3.9,25.1,2.4
	c8.5-0.4,17.4,14.1,16.9,20c-0.3,3.2-3.1,6.7-8.3,6.7c-4.2,0-6.7-4.1-7.5-6.1c-4.7,4.7-11.6,6.2-20.2,6.1c-6.9-0.1-11,9.3-12.2,14
	c-0.9-1.5-3.9-1.7-5.1-1.3c-1.1,0.3-3.4,1.8-3.4,5C374.8,305.1,378.7,308.2,380.9,309z"/>
<path class="st1" d="M409.4,346h11.9"/>
<path class="st1" d="M262.7,483.4v17.3"/>
<path class="st1" d="M836.5,483.4v17.3"/>
<path class="st1" d="M228,877.2l63-375.6h17.9l-61.5,375.6H228z"/>
<path class="st1" d="M863.6,877.2l-63-375.6h-17.9l61.5,375.6H863.6z"/>
<path class="st1" d="M74,877h876"/>
<path class="st1" d="M202.5,861.5c1.4-1,2.7-2,3.8-3.2c5.3-5.3,8.5-12.5,8.5-20.5c0-8.1-3.3-15.3-8.6-20.6c-1.5-1.5-1.4-3.8,0.1-5.3
	l0,0c5.3-5.3,8.5-12.5,8.5-20.5c0-8.1-3.3-15.3-8.6-20.6c-1.5-1.5-1.4-3.8,0.1-5.3l0,0c5.3-5.3,8.6-12.7,8.5-20.9
	c-0.1-9.6-5-17.9-12.3-23.1v-17.2h-39.2v16.9c-1.4,1-2.7,2-3.8,3.2c-5.3,5.3-8.5,12.5-8.5,20.5c0,8.1,3.3,15.3,8.6,20.6
	c1.5,1.5,1.4,3.8-0.1,5.3l0,0c-5.3,5.3-8.5,12.5-8.5,20.5c0,8.1,3.3,15.3,8.6,20.6c1.5,1.5,1.4,3.8-0.1,5.3l0,0
	c-5.3,5.3-8.6,12.7-8.5,20.9c0.1,9.6,5,17.9,12.3,23.1"/>
<path class="st1" d="M202.5,861.5V877h-39.2v-15.7c5,3.5,11,5.6,17.5,5.6h5C192,866.8,197.8,864.9,202.5,861.5z"/>
<path class="st1" d="M193.1,703.7l49.4-105.5"/>
<path class="st1" d="M174.6,704.9l-41.5-94.4"/>
<path class="st1" d="M223.6,638.5l-30.9-64"/>
<path class="st1" d="M109,651l47.7,13.3"/>
<path class="st1" d="M211.6,664l43-9"/>
<path class="st1" d="M273.6,658c4.4,0,8-3.6,8-8s-3.6-8-8-8s-8,3.6-8,8S269.2,658,273.6,658z"/>
<path class="st1" d="M205.4,643.2c4.4,0,8-3.6,8-8s-3.6-8-8-8s-8,3.6-8,8C197.4,639.6,201,643.2,205.4,643.2z"/>
<path class="st1" d="M196.7,670.8c4.4,0,8-3.6,8-8s-3.6-8-8-8s-8,3.6-8,8S192.3,670.8,196.7,670.8z"/>
<path class="st2" d="M167.7,653.4c4.4,0,8-3.6,8-8s-3.6-8-8-8s-8,3.6-8,8C159.7,649.8,163.2,653.4,167.7,653.4z"/>
<path class="st1" d="M218.5,696.9c4.4,0,8-3.6,8-8s-3.6-8-8-8s-8,3.6-8,8S214.1,696.9,218.5,696.9z"/>
<path class="st1" d="M205.4,575c4.4,0,8-3.6,8-8s-3.6-8-8-8s-8,3.6-8,8S201,575,205.4,575z"/>
<path class="st2" d="M254.8,618.5c4.4,0,8-3.6,8-8s-3.6-8-8-8s-8,3.6-8,8C246.8,615,250.4,618.5,254.8,618.5z"/>
<path class="st2" d="M246.1,650.5c4.4,0,8-3.6,8-8s-3.6-8-8-8s-8,3.6-8,8S241.7,650.5,246.1,650.5z"/>
<path class="st1" d="M257.7,676.6c4.4,0,8-3.6,8-8s-3.6-8-8-8s-8,3.6-8,8S253.3,676.6,257.7,676.6z"/>
<path class="st3" d="M93.6,660.6c4.4,0,8-3.6,8-8s-3.6-8-8-8s-8,3.6-8,8C85.6,657.1,89.2,660.6,93.6,660.6z"/>
<path class="st2" d="M138.6,682.4c4.4,0,8-3.6,8-8s-3.6-8-8-8s-8,3.6-8,8C130.6,678.8,134.2,682.4,138.6,682.4z"/>
<path class="st1" d="M138.6,601.1c4.4,0,8-3.6,8-8s-3.6-8-8-8s-8,3.6-8,8S134.2,601.1,138.6,601.1z"/>
<path class="st2" d="M156,624.3c4.4,0,8-3.6,8-8s-3.6-8-8-8s-8,3.6-8,8S151.6,624.3,156,624.3z"/>
<path class="st2" d="M119.7,615.6c4.4,0,8-3.6,8-8s-3.6-8-8-8s-8,3.6-8,8C111.8,612.1,115.3,615.6,119.7,615.6z"/>
<path class="st2" d="M115.4,682.4c4.4,0,8-3.6,8-8s-3.6-8-8-8s-8,3.6-8,8C107.4,678.8,111,682.4,115.4,682.4z"/>
<path class="st3" d="M115.4,646.1c4.4,0,8-3.6,8-8s-3.6-8-8-8s-8,3.6-8,8S111,646.1,115.4,646.1z"/>
<path class="st2" d="M227.2,611.3c4.4,0,8-3.6,8-8s-3.6-8-8-8s-8,3.6-8,8S222.8,611.3,227.2,611.3z"/>
<path class="st1" d="M244.6,590.9c4.4,0,8-3.6,8-8s-3.6-8-8-8s-8,3.6-8,8S240.2,590.9,244.6,590.9z"/>
<path class="st1" d="M184.3,651v53.3"/>
<path class="st1" d="M174.6,669.4l9.7,9.6"/>
<path class="st1" d="M164,747.8l10.2-10.2l9.4,9.4l9.4-9.4l10.5,10.5"/>
<path class="st1" d="M164,794.2l10.2-10.2l9.4,9.4l9.4-9.4l10.5,10.5"/>
<path class="st1" d="M164,840.7l10.2-10.2l9.4,9.4l9.4-9.4l10.5,10.5"/>
</svg>
