<?xml version="1.0" encoding="utf-8"?>
<!-- Generator: Adobe Illustrator 21.0.0, SVG Export Plug-In . SVG Version: 6.00 Build 0)  -->
<svg version="1.1" xmlns="http://www.w3.org/2000/svg" xmlns:xlink="http://www.w3.org/1999/xlink" x="0px" y="0px"
	 viewBox="0 0 2475 1650" style="enable-background:new 0 0 2475 1650;" xml:space="preserve">
<style type="text/css">
	.st0{fill:#DCF4E9;stroke:#ABE5D0;stroke-miterlimit:10;}
	.st1{fill:#ABE5D0;stroke:#DCF4E9;stroke-width:3;stroke-miterlimit:10;}
	.st2{fill:#DCF4E9;stroke:#98E2C6;stroke-width:3;stroke-miterlimit:10;}
	.st3{fill:#ABE5D0;stroke:#DCF4E9;stroke-miterlimit:10;}
	.st4{fill:#DCF4E9;}
	.st5{fill:#ABE5D0;}
	.st6{fill:#0B1728;}
	.st7{fill:#0B1728;stroke:#DCF4E9;stroke-miterlimit:10;}
	.st8{fill:#0B1728;stroke:#DCF4E9;stroke-width:3;stroke-miterlimit:10;}
	.st9{fill:#003333;stroke:#DCF4E9;stroke-miterlimit:10;}
	.st10{fill:#071019;}
	.st11{fill:#0B1728;stroke:#122543;stroke-miterlimit:10;}
	.st12{fill:#DCF4E9;stroke:#122543;stroke-miterlimit:10;}
	.st13{fill:#ABE5D0;stroke:#122543;stroke-miterlimit:10;}
</style>
<g id="Background">
</g>
<g id="Illustration">
	<path class="st0" d="M1295.6,1445.6c0,0,782.8-65.6,982.7-275.4c199.9-209.8,100.1-390.6-71.8-428.2
		c-171.8-37.6-205.5-90.5-122.9-173.9c82.7-83.4,182.1-248-21.8-384.7c-203.9-136.7-398.8,105.8-570.7,92.3
		c-171.9-13.5-114.3-119.1-330.3-29.5C944.9,335.8,975,131.5,794.5,130.4C614,129.2,640.7,328.1,443.3,384.7
		c-337.5,96.8-55.7,502.4-110.5,615.3c-54.7,112.9-79.6,469.4,220.3,491.7C853,1513.8,1295.6,1445.6,1295.6,1445.6z"/>
	<path class="st1" d="M57,951.3c49.1,172.6,222.7,617.9,701.7,593.2c26.8-1.4,46.5-25.6,42.6-52.1
		c-19.8-133.6-125.7-505.2-693.2-598.6C75.2,888.5,47.9,919.2,57,951.3z"/>
	<path class="st2" d="M1898.4,1464.6c84.9,17,193.4-75.6,228.3-176.7c36-104.1-30-147.7-29.5-292.1
		c0.6-164.1,85.9-188.8,142.4-409.9c12.7-49.9,86.4-338.6-4.9-392.8c-84.5-50-321.7,93.6-363.3,277.4c-29.7,131.1,62,186.1,27,338.8
		c-30.7,133.9-111.4,135.9-142.4,265.1C1718.4,1231.6,1786.9,1442.3,1898.4,1464.6z"/>
	<path class="st3" d="M1955.6,1430.4c-22.9-176.8,21.8-449.5,63.3-647.1c44.9-214,95.9-388.5,96.4-390.3l7.1,2.1
		c-0.5,1.7-51.4,176.1-96.3,389.8c-41.4,197.1-85.9,468.9-63.1,644.6L1955.6,1430.4z"/>
	<path class="st3" d="M1903.1,1500.7c-104.7-54.5-140.5-241.8-81-302.7c40.2-41.1,97.9,2.1,153.5-40.5
		c71-54.4,18.8-156.9,74.6-289.9c47.5-113.1,161.5-220.2,228.1-198.2c69.7,23,106.4,193.6,46.9,296.3
		c-38.7,66.8-98,70.1-110.8,132.2c-14.9,72.1,57.2,104.9,57.6,174.8C2272.6,1398.1,2041.6,1572.9,1903.1,1500.7z"/>
	<path class="st4" d="M1956.3,1558.7c-0.9,0-1.8-0.2-2.6-0.5c-3-1.2-4.2-4-2.8-6.4c196-320.8,253.5-692.9,254.1-696.6
		c0.4-2.6,3.4-4.5,6.7-4.2c3.3,0.3,5.7,2.7,5.3,5.3c-0.6,3.7-58.3,377.4-255.2,699.6C1960.7,1557.7,1958.6,1558.7,1956.3,1558.7z"/>
	<path class="st4" d="M823.5,1552.5c-0.4,0.9-0.9,1.8-1.7,2.6c-2.6,2.7-6.5,2.7-8.7,0.1c-294.8-358-708.1-591.1-712.3-593.4
		c-2.9-1.6-3.9-5.7-2.1-9.1c1.8-3.4,5.5-4.8,8.5-3.2c4.2,2.3,419.3,236.3,715.4,596C824.2,1547.4,824.5,1550.1,823.5,1552.5z"/>
	<path class="st0" d="M2257.3,1004.4c-0.4,0-0.8-0.1-1.2-0.4c-0.9-0.7-1-1.9-0.3-2.7c79.4-101.9,84.5-178,74.9-223.9
		c-10.4-49.5-39.7-75.4-40-75.6c-0.8-0.7-0.9-1.9-0.2-2.8c0.7-0.8,1.9-0.9,2.8-0.2c1.2,1.1,30.6,27,41.3,77.8
		c9.8,46.7,4.7,124-75.6,227.1C2258.4,1004.1,2257.9,1004.4,2257.3,1004.4z"/>
	<path class="st5" d="M1864.6,1432.7c-0.6,0-1.2-0.3-1.6-0.8c-67.3-98.2-90.3-174.1-68.2-225.5c19.6-45.7,69-54.2,69.5-54.3
		c1.1-0.2,2.1,0.6,2.2,1.6c0.2,1.1-0.5,2.1-1.6,2.2c-0.5,0.1-47.9,8.3-66.6,52c-21.4,50.1,1.4,124.7,67.9,221.7
		c0.6,0.9,0.4,2.1-0.5,2.7C1865.4,1432.6,1865,1432.7,1864.6,1432.7z"/>
	<polygon class="st6" points="1057.8,1174.6 1025.5,1463.5 1399.2,1463.5 1350.5,1174.6 	"/>
	<path class="st7" d="M1479.7,1522.6H932.8c-14.9,0-26-10.6-23.1-21.9l7-27.8c2.1-8.3,11.3-14.5,22.2-14.8l527.2-16.5
		c11.4-0.4,21.5,5.7,24,14.4l12.7,44.2C1506,1511.7,1494.8,1522.6,1479.7,1522.6z"/>
	<path class="st8" d="M501,429.3v741.1c0,61,48.6,110.8,109.5,112.4c270.7,7,967.9,23.9,1225.6,20.1c44.3-0.7,80.2-36.1,81.4-80.4
		c5-172.2,13-586.2-16.8-778.4c-6.3-40.5-40.5-70.7-81.4-72.1c-226.8-7.3-980.9-30.3-1238.5-24.5C536.5,348.6,501,384.9,501,429.3z"
		/>
	<path class="st9" d="M547.6,432.7v704.1c0,35.6,28.6,64.6,64.2,65.1l1187.4,17.8c35.3,0.5,64.2-27.9,64.3-63.2l2.4-697.8
		c0.1-25.2-20-45.9-45.2-46.5L599.1,382.5C570.9,381.8,547.6,404.5,547.6,432.7z"/>
	<path class="st10" d="M1227.2,1465.8c-1.1,0-1.9-0.9-2-1.9c0-1.1,0.8-2,1.9-2l22.6-0.3c0,0,0,0,0,0c1.1,0,1.9,0.9,2,1.9
		c0,1.1-0.8,2-1.9,2L1227.2,1465.8C1227.2,1465.8,1227.2,1465.8,1227.2,1465.8z"/>
	<path class="st11" d="M929.9,1507.5c-0.1,0-0.2,0-0.3,0c-1.1-0.2-1.8-1.2-1.6-2.2l3.2-20.2c1.7-10.9,11-19,22.1-19.1l239.6-3.5
		c1.1,0,2,0.8,2,1.9c0,1.1-0.8,2-1.9,2l-239.6,3.5c-9.2,0.1-16.9,6.8-18.3,15.9l-3.2,20.2C931.7,1506.8,930.9,1507.5,929.9,1507.5z"
		/>
	<g>
		<path class="st12" d="M986.6,1059.9c1.3,1.6,3.6,2.3,5.6,1.5l57-21c22.5,17.3,47.8,31.1,75.4,40.6l13.9,59.1
			c0.5,2.1,2.2,3.6,4.4,3.8l72.4,7.3c2.1,0.2,4.1-0.9,5-2.9l25.5-55.1c28.9-3.8,56.6-12.2,82-24.7l51.6,32c1.8,1.1,4.1,1,5.8-0.4
			l56.4-46c1.6-1.3,2.3-3.6,1.5-5.6l-21-57c17.3-22.5,31.1-47.8,40.6-75.4l59.1-13.9c2.1-0.5,3.6-2.2,3.8-4.4l7.3-72.4
			c0.2-2.1-0.9-4.1-2.9-5l-55.1-25.5c-3.8-28.9-12.2-56.6-24.7-82l32-51.6c1.1-1.8,1-4.1-0.4-5.8l-46-56.4c-1.3-1.6-3.6-2.3-5.6-1.5
			l-57,21c-22.5-17.3-47.8-31.1-75.4-40.6l-13.9-59.1c-0.5-2.1-2.2-3.6-4.4-3.8l-72.4-7.3c-2.1-0.2-4.1,0.9-5,2.9l-25.5,55.1
			c-28.9,3.8-56.6,12.2-82,24.7l-51.6-32c-1.8-1.1-4.1-1-5.8,0.4l-56.4,46c-1.6,1.3-2.3,3.6-1.5,5.6l21,57
			c-17.3,22.5-31.1,47.8-40.6,75.4l-59.1,13.9c-2.1,0.5-3.6,2.2-3.8,4.4l-7.3,72.4c-0.2,2.1,0.9,4.1,2.9,5l55.1,25.5
			c3.8,28.9,12.2,56.6,24.7,82l-32,51.6c-1.1,1.8-1,4.1,0.4,5.8L986.6,1059.9z"/>
		<path class="st12" d="M1211.1,898.1c-14.6,0-28.8-4.7-40.7-13.5c-14.7-10.9-24.3-26.9-26.9-45c-2.7-18.1,1.9-36.2,12.8-50.9
			c10.9-14.7,26.9-24.3,45-26.9c18.1-2.7,36.2,1.9,50.9,12.8c14.7,10.9,24.3,26.9,26.9,45c5.5,37.4-20.4,72.3-57.8,77.8l0,0
			C1217.9,897.9,1214.5,898.1,1211.1,898.1z M1211.4,768.8c-3,0-6,0.2-9,0.7c-16.1,2.4-30.2,10.8-39.9,23.9
			c-9.7,13-13.7,29-11.3,45.1c2.4,16.1,10.8,30.2,23.9,39.9c13,9.7,29,13.7,45.1,11.3c33.1-4.9,56.1-35.8,51.2-69
			c-2.4-16.1-10.8-30.2-23.9-39.9C1236.9,772.9,1224.3,768.8,1211.4,768.8z"/>
		<path class="st12" d="M1212.5,1006.2c-6,0-12-0.3-18-0.9l0,0c-12.6-1.3-25.1-3.9-37-7.8c-0.8-0.3-1.4-1-1.4-1.9
			c0-0.2,0-0.4,0.1-0.6c0.3-1,1.4-1.6,2.5-1.3c11.7,3.8,23.9,6.3,36.2,7.6c95.3,9.7,180.7-60,190.4-155.3c0.6-5.9,0.9-11.8,0.9-17.7
			c0-88-66.9-163.6-156.2-172.7c-95.3-9.6-180.7,60-190.4,155.3c-0.6,5.9-0.9,11.8-0.9,17.6c0,25.4,5.6,50.6,16.4,73.6
			c0.1,0.3,0.2,0.6,0.2,0.8c0,0.7-0.4,1.4-1.1,1.8c-1,0.5-2.1,0-2.6-0.9c-11.1-23.6-16.8-49.3-16.8-75.3c0-6,0.3-12,0.9-18
			c9.9-97.5,97.2-168.7,194.7-158.8c91.4,9.3,159.7,86.6,159.8,176.6c0,6-0.3,12-0.9,18.1C1379.9,937.8,1302.5,1006.2,1212.5,1006.2
			z"/>
	</g>
	<g>
		<path class="st13" d="M668.3,1123.1c0.5,0.6,1.4,0.9,2.2,0.6l22.4-8.2c8.8,6.8,18.8,12.2,29.6,15.9l5.5,23.2
			c0.2,0.8,0.9,1.4,1.7,1.5l28.4,2.9c0.8,0.1,1.6-0.4,2-1.1l10-21.6c11.4-1.5,22.2-4.8,32.2-9.7l20.3,12.5c0.7,0.4,1.6,0.4,2.3-0.1
			l22.1-18.1c0.6-0.5,0.9-1.4,0.6-2.2l-8.2-22.4c6.8-8.8,12.2-18.8,15.9-29.6l23.2-5.5c0.8-0.2,1.4-0.9,1.5-1.7l2.9-28.4
			c0.1-0.8-0.4-1.6-1.1-2l-21.6-10c-1.5-11.4-4.8-22.2-9.7-32.2l12.5-20.3c0.4-0.7,0.4-1.6-0.1-2.3l-18.1-22.1
			c-0.5-0.6-1.4-0.9-2.2-0.6L820,950c-8.8-6.8-18.8-12.2-29.6-15.9l-5.5-23.2c-0.2-0.8-0.9-1.4-1.7-1.5l-28.4-2.9
			c-0.8-0.1-1.6,0.4-2,1.1l-10,21.6c-11.4,1.5-22.2,4.8-32.2,9.7l-20.2-12.5c-0.7-0.4-1.6-0.4-2.3,0.1L666,944.6
			c-0.6,0.5-0.9,1.4-0.6,2.2l8.2,22.4c-6.8,8.8-12.2,18.8-15.9,29.6l-23.2,5.5c-0.8,0.2-1.4,0.9-1.5,1.7l-2.9,28.4
			c-0.1,0.8,0.4,1.6,1.1,2l21.6,10c1.5,11.4,4.8,22.2,9.7,32.2l-12.5,20.3c-0.4,0.7-0.4,1.6,0.1,2.3L668.3,1123.1z"/>
		<path class="st13" d="M756.3,1060.1c-5.8,0-11.5-1.9-16.2-5.4c-5.9-4.4-9.7-10.7-10.7-17.9c-1.1-7.2,0.7-14.4,5.1-20.3
			c4.4-5.9,10.7-9.7,17.9-10.7c7.2-1.1,14.4,0.7,20.3,5.1c5.9,4.4,9.7,10.7,10.7,17.9c1.1,7.2-0.7,14.4-5.1,20.3
			c-4.4,5.9-10.7,9.7-17.9,10.7l0,0C759,1060,757.7,1060.1,756.3,1060.1z M756.5,1009.3c-1.1,0-2.3,0.1-3.5,0.3
			c-6.2,0.9-11.6,4.2-15.4,9.2c-3.7,5-5.3,11.2-4.4,17.4c0.9,6.2,4.2,11.6,9.2,15.4c5,3.7,11.2,5.3,17.4,4.4l0,0
			c6.2-0.9,11.6-4.2,15.4-9.2c3.7-5,5.3-11.2,4.4-17.4c-0.9-6.2-4.2-11.6-9.2-15.4C766.3,1010.9,761.4,1009.3,756.5,1009.3z"/>
		<path class="st13" d="M756.9,1103.2c-2.4,0-4.8-0.1-7.2-0.4c-1.5-0.2-3.1-0.4-4.6-0.6c-2.9-0.5-5.8-1.2-8.7-2
			c-0.1,0-0.1,0-0.2-0.1c-0.4-0.1-0.9-0.3-1.3-0.4c-0.8-0.3-1.4-1-1.4-1.9c0-0.2,0-0.4,0.1-0.6c0.3-1,1.4-1.6,2.5-1.3
			c4.5,1.5,9.2,2.4,14,2.9c0.4,0,0.8,0.1,1.1,0.1c0,0,0,0,0,0c11.3,1,22.5-0.9,32.6-5.4c0,0,0,0,0,0c0.1,0,0.1,0,0.2-0.1
			c5-2.2,9.7-5.1,14.1-8.5c0.1-0.1,0.3-0.2,0.4-0.3c0.1-0.1,0.1-0.1,0.2-0.2c0.1-0.1,0.3-0.2,0.4-0.3c13.9-11.3,22.5-27.3,24.3-45.1
			c0.2-2.3,0.3-4.6,0.3-6.9c0-15.4-5.2-30.1-15.1-42.2c-11.3-13.9-27.3-22.5-45.1-24.3c-36.8-3.7-69.7,23.1-73.4,59.9
			c-0.2,2.3-0.3,4.5-0.3,6.8c0,9.8,2.1,19.5,6.3,28.4c0.1,0.3,0.2,0.6,0.2,0.8c0,0.7-0.4,1.4-1.1,1.8c-1,0.5-2.1,0-2.6-0.9
			c-4.4-9.4-6.7-19.7-6.7-30c0-2.4,0.1-4.8,0.4-7.2c1.9-18.8,11-35.8,25.7-47.8c14.7-12,33.1-17.5,52-15.6
			c18.8,1.9,35.8,11,47.8,25.7c10.4,12.8,16,28.4,16,44.7c0,2.4-0.1,4.8-0.4,7.3C823.7,1075.9,792.8,1103.2,756.9,1103.2z"/>
	</g>
	<g>
		<path class="st13" d="M1586.3,668.1c0.5,0.6,1.4,0.9,2.2,0.6l22.4-8.2c8.8,6.8,18.8,12.2,29.6,15.9l5.5,23.2
			c0.2,0.8,0.9,1.4,1.7,1.5l28.4,2.9c0.8,0.1,1.6-0.4,2-1.1l10-21.6c11.4-1.5,22.2-4.8,32.2-9.7l20.3,12.5c0.7,0.4,1.6,0.4,2.3-0.1
			l22.1-18.1c0.6-0.5,0.9-1.4,0.6-2.2l-8.2-22.4c6.8-8.8,12.2-18.8,15.9-29.6l23.2-5.5c0.8-0.2,1.4-0.9,1.5-1.7l2.9-28.4
			c0.1-0.8-0.4-1.6-1.1-2l-21.6-10c-1.5-11.4-4.8-22.2-9.7-32.2l12.5-20.3c0.4-0.7,0.4-1.6-0.1-2.3l-18.1-22.1
			c-0.5-0.6-1.4-0.9-2.2-0.6L1738,495c-8.8-6.8-18.8-12.2-29.6-15.9l-5.5-23.2c-0.2-0.8-0.9-1.4-1.7-1.5l-28.4-2.9
			c-0.8-0.1-1.6,0.4-2,1.1l-10,21.6c-11.4,1.5-22.2,4.8-32.2,9.7l-20.3-12.5c-0.7-0.4-1.6-0.4-2.3,0.1l-22.1,18.1
			c-0.6,0.5-0.9,1.4-0.6,2.2l8.2,22.4c-6.8,8.8-12.2,18.8-15.9,29.6l-23.2,5.5c-0.8,0.2-1.4,0.9-1.5,1.7l-2.9,28.4
			c-0.1,0.8,0.4,1.6,1.1,2l21.6,10c1.5,11.4,4.8,22.2,9.7,32.2l-12.5,20.3c-0.4,0.7-0.4,1.6,0.1,2.3L1586.3,668.1z"/>
		<path class="st13" d="M1674.3,605.1c-5.8,0-11.5-1.9-16.2-5.4c-5.9-4.4-9.7-10.7-10.7-17.9c-1.1-7.2,0.7-14.4,5.1-20.3
			c4.4-5.9,10.7-9.7,17.9-10.7c7.2-1.1,14.4,0.7,20.3,5.1c5.9,4.4,9.7,10.7,10.7,17.9s-0.7,14.4-5.1,20.3
			c-4.4,5.9-10.7,9.7-17.9,10.7l0,0C1677,605,1675.7,605.1,1674.3,605.1z M1674.5,554.3c-1.1,0-2.3,0.1-3.5,0.3
			c-6.2,0.9-11.6,4.2-15.4,9.2c-3.7,5-5.3,11.2-4.4,17.4c0.9,6.2,4.2,11.6,9.2,15.4c5,3.7,11.2,5.3,17.4,4.4l0,0
			c6.2-0.9,11.6-4.2,15.4-9.2c3.7-5,5.3-11.2,4.4-17.4c-0.9-6.2-4.2-11.6-9.2-15.4C1684.3,555.9,1679.4,554.3,1674.5,554.3z"/>
		<path class="st13" d="M1674.9,648.2c-2.4,0-4.8-0.1-7.2-0.4c-1.5-0.2-3.1-0.4-4.6-0.6c-2.9-0.5-5.8-1.2-8.7-2
			c-0.1,0-0.1,0-0.2-0.1c-0.4-0.1-0.9-0.3-1.3-0.4c-0.8-0.3-1.4-1-1.4-1.9c0-0.2,0-0.4,0.1-0.6c0.3-1,1.4-1.6,2.5-1.3
			c4.5,1.5,9.2,2.4,14,2.9c0.4,0,0.8,0.1,1.1,0.1c0,0,0,0,0,0c11.3,1,22.5-0.9,32.6-5.4c0,0,0,0,0,0c0.1,0,0.1,0,0.2-0.1
			c5-2.2,9.7-5.1,14.1-8.5c0.1-0.1,0.3-0.2,0.4-0.3c0.1-0.1,0.1-0.1,0.2-0.2c0.1-0.1,0.3-0.2,0.4-0.3c13.9-11.3,22.5-27.3,24.3-45.1
			c0.2-2.3,0.3-4.6,0.3-6.9c0-15.4-5.2-30.1-15.1-42.2c-11.3-13.9-27.3-22.5-45.1-24.3c-36.8-3.7-69.7,23.1-73.4,59.9
			c-0.2,2.3-0.3,4.5-0.3,6.8c0,9.8,2.1,19.5,6.3,28.4c0.1,0.3,0.2,0.6,0.2,0.8c0,0.7-0.4,1.4-1.1,1.8c-1,0.5-2.1,0-2.6-0.9
			c-4.4-9.4-6.7-19.7-6.7-30c0-2.4,0.1-4.8,0.4-7.2c1.9-18.8,11-35.8,25.7-47.8c14.7-12,33.1-17.5,52-15.6
			c18.8,1.9,35.8,11,47.8,25.7c10.4,12.8,16,28.4,16,44.7c0,2.4-0.1,4.8-0.4,7.3C1741.7,620.9,1710.8,648.2,1674.9,648.2z"/>
	</g>
	<g>
		<path class="st1" d="M453.6,1371.2c-21.4-22.6-48.1-36-73.6-39.2c-22.8-2.8-43.7-14.2-58.1-32.1c-1.5-1.9-3.1-3.7-4.8-5.5
			c-25.8-27.2-63.3-33.5-83.8-14.1c-20.5,19.4-16.3,57.2,9.5,84.4c5.3,5.6,11,10.2,17,14c19.2,12,33.4,30.7,39.1,52.5
			c5.1,19.6,15.8,39.2,31.9,56.2c23.9,25.3,54.5,39,82.5,39.9c10.6,0.3,21.1,2.5,30.9,6.6c16.3,6.8,33.8,5.3,45.3-5.6
			c12.4-11.8,14.4-31.1,6.6-48.9c-4.4-10-6.8-20.8-7.5-31.8C487.2,1421.8,475.3,1394,453.6,1371.2z"/>
		<path class="st1" d="M268,1300.4c21,19.7,41.5,40.1,61.8,60.8c5.1,5.2,10.1,10.4,15.1,15.7l7.5,7.9l7.5,8c5,5.3,10,10.6,14.9,16
			l14.7,16.2c9.7,10.9,19.5,21.8,29.1,32.9c4.8,5.6,9.6,11,14.3,16.7l14.1,17c18.6,22.8,36.8,46.2,53.9,70.7l-0.9,0.9l-13.4-17.7
			l-3.3-4.4l-3.4-4.3l-6.9-8.7l-6.9-8.7c-2.3-2.9-4.7-5.7-7-8.5c-4.7-5.7-9.3-11.4-14-17c-19-22.4-38.2-44.4-57.8-66
			c-9.9-10.7-19.7-21.5-29.6-32.1l-7.4-8l-7.5-7.9c-5-5.3-10-10.6-15-15.8c-10-10.5-20-21-30.2-31.4c-10.1-10.4-20.2-20.7-30.4-31
			L268,1300.4z"/>
	</g>
</g>
</svg>
