<?xml version="1.0" encoding="utf-8"?>
<!-- Generator: Adobe Illustrator 21.0.0, SVG Export Plug-In . SVG Version: 6.00 Build 0)  -->
<svg version="1.1" id="Warstwa_1" xmlns="http://www.w3.org/2000/svg" xmlns:xlink="http://www.w3.org/1999/xlink" x="0px" y="0px"
	 viewBox="0 0 1024 1024" style="enable-background:new 0 0 1024 1024;" xml:space="preserve">
<style type="text/css">
	.st0{fill:#DCF4E9;}
	.st1{fill:#98E2C6;}
	.st2{fill:none;stroke:#98E2C6;stroke-miterlimit:10;}
	.st3{fill:#FFFFFF;stroke:#DCF4E9;stroke-miterlimit:10;}
	.st4{fill:#DCF4E9;stroke:#98E2C6;stroke-miterlimit:10;}
</style>
<path class="st0" d="M585.9,789c164,0,297-133,297-297s-133-297-297-297s-297,133-297,297S421.9,789,585.9,789z"/>
<path class="st1" d="M623.8,327.2c-6.8-2.2-14.2-3-21.8-2.2c-8.6,0.9-14.7,4.2-22.8,7c-7,2.4-17,2.3-23.2,6.6
	c-3,2.1-7.8,6.8-8.1,15.3c-0.2,5.7,2.5,12.1,7.3,14.9c10.7,6.1,23.1-4.1,28.1-12.9c8.9,5.8,13.9,14.6,12.1,25.3
	c-0.9,5-2.5,9.9-2.7,15c-0.3,8.9,4.2,17.8,11.6,22.7c2.1,1.4,4.4,2.5,6,4.4c2.6,3,2.9,7.2,3.4,11.1c0.9,7.5,3,15.2,7.4,21.5
	c4.3,6.3,12.4,9,16.1,15.7c3.4,6.1,1.9,13.7,3.4,20.3c1.7,7.3,4,14.5,7.9,21c4.5,7.6,11.3,14,19.7,16.9c9.7,3.4,20.3,1.4,27.8-5.7
	c3.8-3.6,6.7-8.1,7.9-13.2c1.6-6.4,0.5-13.1-1.8-19.2c-6.3-16.5-28.6-29.3-36.7-44.9c-9.8-18.8-5.9-40.6-6-60.8
	c-0.1-13.1-3.7-27.5-10.4-38.7C642.8,337.3,634,330.6,623.8,327.2z"/>
<path class="st2" d="M561.3,371.1c-1.6,12.1-1.2,21.8-0.5,28.7c1,9.4,2.7,14.3,6.5,18.1c5.7,5.7,13.4,6.1,15.3,6.2
	c7.9,0.4,14.5-3,19.3-6.7"/>
<path class="st2" d="M584.7,424.2c0.8,3.9,1.4,8.1,2,12.5c1.7,14,1.5,26.4,0.6,36.8c-7.4,8.1-15.1,17-22.7,26.8
	c-10.9,14-21.6,31.8-29.5,44.5"/>
<path class="st2" d="M663.9,527.5c1.2,13.3,3.6,30.4,8.3,49.8c18.5,75.2,55.3,110.5,40.2,131.7c-12,16.8-48.2,13.2-52,12.7
	c-13.2-1.5-15.6-5.4-39.3-10.9c-29.1-6.7-31.3-2.1-38.3-7.5c-15.4-12.1-6.3-36-14.3-79.6c-3.5-19.4-9-34.7-12.9-44.2"/>
<path class="st2" d="M581.4,702.1c-8.3,4.7-19,10.7-31.4,17.7c-38.4,21.7-51.1,28.9-67.1,41.8c-9.5,7.7-19.5,11.5-24.7,22.5
	c-0.2,0.5-0.7,1.4-1.2,2.8c-1.1,2.7-2.4,6.9-2.8,11.9c-0.4,5,0.1,10.9,2.9,16.7c3.3,7,8.5,11.2,11.5,13.2h7.3h8.3
	c50.5,0,101.1,0,151.6,0h11.6V801c0-11.3,0-22.5,0-28.8"/>
<path class="st2" d="M696.7,719.2c-3.2,13-9.8,28.6-23.5,40.2c-0.3,0.2-0.6,0.5-0.9,0.7c-2.3,1.7-5.8,3.6-9.8,5.6
	c-0.5,0.3-1.1,0.5-1.6,0.8c-2.8,1.3-5.8,2.6-8.7,3.8c-1.6,0.7-3.2,1.3-4.8,2c-4.6,1.8-8.8,3.4-11.6,4.3c-1.2,0.4-2.2,0.7-2.8,0.9
	c-21.5,6.5-40,8.6-52.8,9.3"/>
<path class="st2" d="M475.9,766.7c2.3-18.8,4.1-38.6,5.2-59.3c0.6-12.1,1-23.8,1.1-35.2c11.7,8.2,24.8,16.6,39.5,24.9
	c12.5,7.1,24.6,13.1,36.1,18.3"/>
<path class="st2" d="M474,767.9h-36.7c0.6-19,0-37.8-0.5-56.8c-0.5-18.8,0.3-37.8,1.9-56.6c0.7-8.5,2.1-17.2,6.1-24.8
	c8.9-16.9,29.5-20,46.6-16.3c27.4,5.9,54.4,15.6,79.5,28.4"/>
<path class="st2" d="M475.9,828.7h-7.3H379v-1c0-5.2,3.1-9.9,7.9-12l41-17.4c0.1-0.4,0.3-0.8,0.4-1.2c1-2.6,2.4-6.3,3.9-10.3
	c2.6-7.1,5.6-15,7.1-18.9"/>
<path class="st2" d="M428.3,797.1c3.3,0.9,7,1.7,11,2c5.5,0.5,10.5,0.2,14.8-0.4"/>
<path class="st2" d="M652.1,770.3c25.2,18.5,41.4,35.7,72.3,57.9c-20.2,0-14.8,0.5-33.9,0.5c-5.5,0-8.7-5.2-11.6-9.1
	c-5.9-8-14.4-12.5-23.6-15.8c-2.6-0.9-5.3-1.7-7.9-2.7"/>
<path class="st2" d="M647.3,828.7h43.1h4.8"/>
<path class="st2" d="M551.7,537c3.5,5.2,7.2,11.3,10.7,18.4c3.2,6.6,5.5,12.3,7.3,18"/>
<path class="st2" d="M576.8,524l-74.3,38.9c-4.3,2.3-9.5,2-13.6-0.8c-13.9-9.5-28.2-16.1-42.8-24.5c-12.6-7.3-27.7-14-38.1-24.5
	c-10.3-10.4-14-25.3-20.9-38.1c-4.4-8.2-10.1-15.6-16.9-21.9c-0.1-0.1-0.2-0.2-0.3-0.3c-2.8-2-6.3,1.7-4.3,4.6
	c1.9,2.7,4.1,5.1,5.4,8.2c6.5,15.8,1.7,35,14.1,48.5c5.1,5.6,11.6,9.5,17.8,13.6c6.8,4.4,12.9,9.5,19.2,14.6
	c15.8,12.8,31.5,25.7,47.1,38.8c7.1,5.9,14.1,11.8,21.1,17.8c3.8,3.2,9,4,13.6,2.1l78.6-33"/>
<path class="st2" d="M587.9,473.2c8.5-0.9,13.2-1.8,19-4.6c6.5-3.2,11.7-6.5,15.4-9.8"/>
<path class="st3" d="M887.2,651.4H769.7v177.3h117.5V651.4z"/>
<path class="st1" d="M887.2,750.8H769.7v26.6h117.5V750.8z"/>
<path class="st1" d="M887.2,702.7H769.7v26.6h117.5V702.7z"/>
<path class="st2" d="M789.7,809.6c3.6,0,6.6-3,6.6-6.6c0-3.6-3-6.6-6.6-6.6c-3.6,0-6.6,3-6.6,6.6
	C783.1,806.7,786.1,809.6,789.7,809.6z"/>
<path class="st2" d="M815.5,809.6c3.6,0,6.6-3,6.6-6.6c0-3.6-3-6.6-6.6-6.6s-6.6,3-6.6,6.6C809,806.7,811.9,809.6,815.5,809.6z"/>
<path class="st2" d="M841.4,809.6c3.6,0,6.6-3,6.6-6.6c0-3.6-2.9-6.6-6.6-6.6s-6.6,3-6.6,6.6C834.8,806.7,837.8,809.6,841.4,809.6z"
	/>
<path class="st2" d="M867.2,809.6c3.6,0,6.6-3,6.6-6.6c0-3.6-3-6.6-6.6-6.6c-3.6,0-6.6,3-6.6,6.6
	C860.6,806.7,863.6,809.6,867.2,809.6z"/>
<path class="st2" d="M789.7,683.6c3.6,0,6.6-3,6.6-6.6c0-3.6-3-6.6-6.6-6.6c-3.6,0-6.6,3-6.6,6.6
	C783.1,680.7,786.1,683.6,789.7,683.6z"/>
<path class="st2" d="M815.5,683.6c3.6,0,6.6-3,6.6-6.6c0-3.6-3-6.6-6.6-6.6s-6.6,3-6.6,6.6C809,680.7,811.9,683.6,815.5,683.6z"/>
<path class="st2" d="M841.4,683.6c3.6,0,6.6-3,6.6-6.6c0-3.6-2.9-6.6-6.6-6.6s-6.6,3-6.6,6.6C834.8,680.7,837.8,683.6,841.4,683.6z"
	/>
<path class="st2" d="M867.2,683.6c3.6,0,6.6-3,6.6-6.6c0-3.6-3-6.6-6.6-6.6c-3.6,0-6.6,3-6.6,6.6
	C860.6,680.7,863.6,683.6,867.2,683.6z"/>
<path class="st2" d="M273.3,540.7l-92.6-26.8L154,606.4l92.6,26.8L273.3,540.7z"/>
<path class="st2" d="M163.2,574.2l31.6-17.1l15.2,26.9"/>
<path class="st2" d="M181,599.7l47.4-25.6l16.2,28.6"/>
<path class="st1" d="M243,564.2c4.7,0,8.6-3.8,8.6-8.6c0-4.7-3.8-8.6-8.6-8.6s-8.6,3.8-8.6,8.6C234.4,560.4,238.2,564.2,243,564.2z"
	/>
<path class="st2" d="M357.3,476.4l-72.3,19l-29.7-112.8l112.8-29.6l29.6,112.8"/>
<path class="st2" d="M349.4,418.2l-42.7-11.7l11.3,42.8L349.4,418.2z"/>
<path class="st0" d="M192,464c10.6,0,19.1-8.6,19.1-19.1c0-10.6-8.6-19.1-19.1-19.1c-10.6,0-19.1,8.6-19.1,19.1
	C172.9,455.5,181.4,464,192,464z"/>
<path class="st0" d="M344.6,592.8c6.8,0,12.4-5.5,12.4-12.4c0-6.8-5.5-12.4-12.4-12.4c-6.8,0-12.4,5.5-12.4,12.4
	C332.2,587.2,337.7,592.8,344.6,592.8z"/>
<path class="st0" d="M463.4,428.1c8,0,14.4-6.5,14.4-14.4c0-8-6.5-14.4-14.4-14.4c-8,0-14.4,6.5-14.4,14.4
	C449,421.6,455.5,428.1,463.4,428.1z"/>
<path class="st2" d="M416.8,674.9l-30.3,15.8l-34.9-67l66.9-34.9l9.5,18.2"/>
<path class="st2" d="M381.7,641.4l7.6,14.6"/>
<path class="st2" d="M387.2,631.3l13.5,26"/>
<path class="st2" d="M398.7,632.5l7.6,14.6"/>
<path class="st2" d="M404.2,622.4l13.5,25.9"/>
<path class="st2" d="M415.7,623.7l7.6,14.6"/>
<path class="st1" d="M468.6,828.7H379v-1c0-5.2,3.1-9.9,7.9-12l41-17.4c0.1-0.4,0.3-0.8,0.4-1.2c3.3,0.9,7,1.7,11,2
	c5.5,0.5,10.5,0.2,14.8-0.4c-0.4,5,0.1,10.9,2.9,16.7C460.4,822.5,465.6,826.6,468.6,828.7z"/>
<path class="st1" d="M724.4,828.2c-20.2,0-14.8,0.5-33.9,0.5c-5.5,0-8.7-5.2-11.6-9.1c-5.9-8-14.4-12.5-23.6-15.8
	c-2.6-0.9-5.3-1.7-7.9-2.7v-28.8c1.6-0.6,3.2-1.3,4.8-2C677.3,788.8,693.5,806,724.4,828.2z"/>
<path class="st1" d="M827.8,502.9c2.8-7.3,6.1-14.3,9.9-21c3.7-6.4,7.6-12.9,12.9-18c4.4-4.2,13.3-10.2,19.8-7.4
	c3.6,1.6,4.9,6,4.9,9.6c-0.1,10.7-9.8,18.9-18,24.2c-7,4.6-14.9,8.4-23,10.8C833.5,501.4,828,502.3,827.8,502.9z"/>
<path class="st2" d="M827.8,573.5c3.1-8.2,6.9-16.2,11.3-23.8c4.1-7.2,8.6-14.7,14.7-20.4c5-4.8,15.1-11.5,22.4-8.4
	c4.1,1.8,5.6,6.8,5.5,10.9c-0.2,12.1-11.1,21.4-20.4,27.5c-8,5.2-16.9,9.5-26.1,12.3C834.3,571.8,828,572.9,827.8,573.5z"/>
<path class="st1" d="M829.1,573.5c-3.1-8.2-6.9-16.2-11.3-23.8c-4.1-7.2-8.6-14.7-14.7-20.4c-5-4.8-15.1-11.5-22.4-8.4
	c-4.1,1.8-5.6,6.8-5.5,10.9c0.2,12.1,11.1,21.4,20.4,27.5c8,5.2,16.9,9.5,26.1,12.3C822.6,571.8,828.9,572.9,829.1,573.5z"/>
<path class="st1" d="M827.8,626.9c3.1-8.2,6.9-16.2,11.3-23.8c4.1-7.2,8.6-14.7,14.7-20.4c5-4.8,15.1-11.5,22.4-8.4
	c4.1,1.8,5.6,6.8,5.5,10.9c-0.2,12.1-11.1,21.4-20.4,27.5c-8,5.2-16.9,9.5-26.1,12.3C834.3,625.2,828,626.3,827.8,626.9z"/>
<path class="st2" d="M829.1,626.9c-3.1-8.2-6.9-16.2-11.3-23.8c-4.1-7.2-8.6-14.7-14.7-20.4c-5-4.8-15.1-11.5-22.4-8.4
	c-4.1,1.8-5.6,6.8-5.5,10.9c0.2,12.1,11.1,21.4,20.4,27.5c8,5.2,16.9,9.5,26.1,12.3C822.6,625.2,828.9,626.3,829.1,626.9z"/>
<path class="st4" d="M827.8,523.8c-2.6-6.8-5.7-13.5-9.4-19.8c-3.4-6-7.2-12.2-12.2-17c-4.2-4-12.6-9.6-18.7-7
	c-3.4,1.5-4.6,5.7-4.6,9.1c0.1,10.1,9.2,17.8,17,22.9c6.7,4.3,14.1,7.9,21.7,10.2C822.4,522.4,827.6,523.3,827.8,523.8z"/>
<path class="st2" d="M827.8,452.2v199.2"/>
<path class="st2" d="M96,828.7h831.2"/>
<path class="st2" d="M324.5,709H131.8v119.6h192.7V709z"/>
<path class="st2" d="M192,828.7V709"/>
<path class="st4" d="M172,675.1h-60.3l20,33.9H192L172,675.1z"/>
<path class="st2" d="M284.1,675.1h60.3l-20,33.9h-60.3L284.1,675.1z"/>
<path class="st0" d="M192,709h-60.3v119.6H192V709z"/>
<path class="st2" d="M270.2,737.8l-12.8-5.8l-12.8,5.8V709h25.6V737.8z"/>
<path class="st2" d="M270.2,799.4h-25.6v28.8h25.6V799.4z"/>
<path class="st1" d="M584.7,424.2c2.6-0.1,6.4-0.5,10.4-2.5c3.5-1.8,7.6-5.5,9.6-6.9c0,3.3-1.8,9.4-5.4,13.8
	c-4.8,5.9-10.8,7.8-12.4,8.2c-0.8-5.2-0.3-2.4-0.9-5.5C585.5,428.4,585.5,427.7,584.7,424.2z"/>
<path class="st1" d="M898.7,245.3h-23.1c-29.7,0-53.8,24.1-53.8,53.8v53.8h76.9c29.7,0,53.8-24.1,53.8-53.8
	C952.6,269.4,928.5,245.3,898.7,245.3z M865,306.2c-3.9,0-7-3.1-7-7c0-3.9,3.2-7,7-7s7,3.1,7,7C872,303,868.9,306.2,865,306.2z
	 M887.2,306.2c-3.9,0-7-3.1-7-7c0-3.9,3.2-7,7-7c3.9,0,7,3.1,7,7C894.3,303,891.1,306.2,887.2,306.2z M909.5,306.2c-3.9,0-7-3.1-7-7
	c0-3.9,3.2-7,7-7c3.9,0,7,3.1,7,7C916.5,303,913.4,306.2,909.5,306.2z"/>
</svg>
