<svg id="Warstwa_1" data-name="Warstwa 1" xmlns="http://www.w3.org/2000/svg" viewBox="0 0 300 300"><defs><style>.cls-1{fill:#f5f6f7;}.cls-2{fill:#0b1728;}.cls-3{fill:none;stroke:#0b1728;stroke-miterlimit:10;}</style></defs><title>b-remote</title><path class="cls-1" d="M150,287A137,137,0,1,0,13,150,137,137,0,0,0,150,287Z"/><path class="cls-2" d="M62.2,291.12,82.09,180.69h7.4L70.26,291.12Z"/><path class="cls-2" d="M144.34,291.12l-11.79-74.24-5.17,13.65,8.89,60.59Z"/><path class="cls-2" d="M69.07,178.41l52.94-.21-4.67,9.72-48.27.62Z"/><path class="cls-3" d="M185,282.31c2.4.08,6.82-.66,5.42-4.09S186.15,279.54,185,282.31Zm0,0c.62-1.94,1.12-5.87-1.61-6.29S183.26,280.07,185,282.31Z"/><path class="cls-3" d="M126.51,284.87c2.15.37,6.25.25,5.38-3S128,282.51,126.51,284.87Zm0,0c.79-1.65,1.74-5.17-.66-5.87S125.31,282.64,126.51,284.87Z"/><path class="cls-2" d="M100.29,64.43c-3.81.33-8.06-2.32-9.35-3.35a12.1,12.1,0,0,0,3.81,5.5,11,11,0,0,0,5.54,2Z"/><path class="cls-3" d="M88,70.88H73c-2.69.08-8,2.27-7.49,10.67.37,6.2,1.32,22.21,2.07,35A12.41,12.41,0,0,0,80,128.21h34.74c-2.07-2.52-4.92-8.64,0-12.82l-23.28-.7a4.15,4.15,0,0,1-4-3.43L82.92,84.74"/><path class="cls-3" d="M88,70.68c.62,1.94,3.18,8,9.22,7.82a7.94,7.94,0,0,0,7.9-7h8.23c1.28-.12,4.38,1.12,6.62,7s7.28,19,9.55,24.9"/><path class="cls-3" d="M126.22,118.36l4.47-20.72c.91,1.16,4.71,3.14,12.78,1.74v17"/><path class="cls-3" d="M132.59,99l1.65-9.84-3.18-14.52c.54-.7,1.94-1.74,3.18,0a11.57,11.57,0,0,1,1.9,4.34l4.67-10.63c.41-1.32,2.23-3.6,6-2s3.6,7,3,9.51L142.19,90v9.6"/><path class="cls-3" d="M138.13,77.91c1.08,1.16,3,4.14,2.11,6.53"/><path class="cls-3" d="M140.37,74.85a7.29,7.29,0,0,1,5.67,3"/><path class="cls-3" d="M142.68,75.14l2.65-6.2"/><path class="cls-3" d="M144.54,76.18l2.4-3.35"/><path class="cls-3" d="M112.08,87l3.52,7.61a6.21,6.21,0,0,1-5.62,8.81h-.41"/><path class="cls-3" d="M112.86,118.61H126l8.23-2.9a10.88,10.88,0,0,1,13.32,5.71c3.47,7,3.76,7.82,3.47,7.36"/><path class="cls-3" d="M124.86,128.33c1.9.45,9.39-3.76,10.67-4.76a10.67,10.67,0,0,1,5.09,4.76"/><path class="cls-3" d="M139.91,123a10.86,10.86,0,0,1,3.93,4.51"/><path class="cls-3" d="M143.47,123a10.86,10.86,0,0,1,3.93,4.51"/><path class="cls-3" d="M39.74,128.33H277.06"/><path class="cls-3" d="M215.76,128H161.87a4.13,4.13,0,0,1-4-5.25L168,86.52a4.12,4.12,0,0,1,4-3h53.89a4.13,4.13,0,0,1,4,5.25l-10.05,36.19A4.12,4.12,0,0,1,215.76,128Z"/><path class="cls-2" d="M193.89,111.66a5.91,5.91,0,1,0-5.91-5.91A5.91,5.91,0,0,0,193.89,111.66Z"/><path class="cls-3" d="M39.74,135.61H277.06"/><path class="cls-3" d="M72.66,135.61l-4.18,15.67a21.48,21.48,0,0,0,21.05,27l32.71-.41L83.71,246l33.62,11.25L149,172.79a9.51,9.51,0,0,0-6.49-12.53l-51-13.48"/><path class="cls-3" d="M116.75,135.82l-2.23,10,36.73,6.45a12.45,12.45,0,0,1,10.26,11.46l5.38,87-32.59-2.4,5.25-50.21"/><path class="cls-2" d="M93.63,280.61l5.46-12.24,8.06,8.56c6.45,6.82,14.89,7,18.12,6.95l6.58,3.23a4.19,4.19,0,0,1,2.32,3.72v.29H116.3Z"/><path class="cls-3" d="M104,252.86l-5,17.37"/><path class="cls-3" d="M117.37,257.08l-4.76,13.07,12.24,13.73"/><path class="cls-3" d="M152.49,249.68l4.09,33c7.9,1.16,23.86,3.85,27.79.33l-14.31-6.49-3.39-26.8"/><path class="cls-2" d="M156.29,291.12l-.62-11.58c1.9.25,8.56,4.14,16.71,4.14,4.55,0,8.73-.41,9.93-1.61l16.34,5.54a3.69,3.69,0,0,1,2.52,3.52Z"/><path class="cls-3" d="M88,56.74V70.88m3.27-10.05c1.24,1.45,4.76,4.18,8.81,3.64,5.09-.7,7.49-7.4,7.49-9.8,0-1.9-.33-7.69-.33-9.51m-6.82,19.23V73.2"/><path class="cls-2" d="M88.63,56.2v2.85c-5-5.21-6.2-8.4-5.58-14.39.5-4.8,3.14-7.24,5-7.82-8.69-2.4-8.06,9.88-7,13.23.83,2.69-.7,5.38-1.57,6.37-2.07,1.7-6.41,2.48-7.44-8C70.68,35.4,79.45,30.72,84.74,31c3.14.21,6.74,1.32,7.44,2.81,3.14-2.81,8.77-1.61,10.38,1,3.52-.17,7.2,5.83,7,8.27a3.22,3.22,0,0,1-3.43,2.77c-1.74,0-2.77-1.7-3.1-2.52-1.94,1.94-4.8,2.56-8.35,2.52-2.85,0-4.55,3.85-5,5.79-.37-.62-1.61-.7-2.11-.54a2.1,2.1,0,0,0-1.41,2.07C86.1,54.59,87.72,55.87,88.63,56.2Z"/><path class="cls-3" d="M100.41,71.5h4.92"/><path class="cls-3" d="M39.74,128.33v7.16"/><path class="cls-3" d="M277.06,128.33v7.16"/><path class="cls-3" d="M25.39,291.2,51.45,135.86h7.4L33.41,291.2Z"/><path class="cls-3" d="M288.27,291.2,262.21,135.86h-7.4L280.24,291.2Z"/><path class="cls-3" d="M15,291.12H294"/></svg>