<svg id="Warstwa_1" data-name="Warstwa 1" xmlns="http://www.w3.org/2000/svg" viewBox="0 0 300 300"><defs><style>.cls-1{fill:#f5f6f7;}.cls-2{fill:#0b1728;}.cls-3{fill:none;stroke:#0b1728;stroke-miterlimit:10;}</style></defs><title>b-unbox</title><path class="cls-1" d="M150,287A137,137,0,1,0,13,150,137,137,0,0,0,150,287Z"/><path class="cls-2" d="M244.54,48.9a25.67,25.67,0,0,0-10.6-1.07c-4.18.44-7.15,2-11.09,3.41-3.41,1.17-8.27,1.12-11.29,3.21a9.23,9.23,0,0,0-3.94,7.44c-.1,2.77,1.22,5.89,3.55,7.25,5.21,3,11.24-2,13.67-6.28,4.33,2.82,6.76,7.1,5.89,12.31a53.37,53.37,0,0,0-1.31,7.3,12.94,12.94,0,0,0,5.64,11A12.91,12.91,0,0,1,238,95.65c1.26,1.46,1.41,3.5,1.65,5.4a23,23,0,0,0,3.6,10.46c2.09,3.06,6,4.38,7.83,7.64,1.65,3,.92,6.66,1.65,9.88a35.09,35.09,0,0,0,3.84,10.22,18.45,18.45,0,0,0,9.58,8.22,13.32,13.32,0,0,0,17.37-9.19,15.78,15.78,0,0,0-.88-9.34c-3.06-8-13.91-14.25-17.85-21.84-4.77-9.15-2.87-19.75-2.92-29.58a38.55,38.55,0,0,0-5.06-18.83A22.7,22.7,0,0,0,244.54,48.9Z"/><path class="cls-3" d="M214.14,70.25a59.56,59.56,0,0,0-.24,14c.49,4.57,1.31,7,3.16,8.81a11.37,11.37,0,0,0,7.44,3,14.24,14.24,0,0,0,9.39-3.26"/><path class="cls-3" d="M225.52,96.09c.39,1.9.68,3.94,1,6.08a86.2,86.2,0,0,1,.29,17.9c-3.6,3.94-7.35,8.27-11,13-5.3,6.81-10.51,15.47-14.35,21.65"/><path class="cls-3" d="M264,146.34a167.34,167.34,0,0,0,4,24.23c9,36.58,26.9,53.75,19.56,64.07-5.84,8.17-23.45,6.42-25.3,6.18-6.42-.73-7.59-2.63-19.12-5.3-14.16-3.26-15.23-1-18.63-3.65-7.49-5.89-3.06-17.51-7-38.72a106.62,106.62,0,0,0-6.28-21.5"/><path class="cls-3" d="M223.92,231.27c-4,2.29-9.24,5.21-15.28,8.61C190,250.44,183.78,253.94,176,260.22c-4.62,3.75-9.49,5.59-12,10.95-.1.24-.34.68-.58,1.36a19.85,19.85,0,0,0-1.36,5.79,15.67,15.67,0,0,0,1.41,8.12,16.08,16.08,0,0,0,5.59,6.42h87V265.38"/><path class="cls-3" d="M280,239.59c-1.56,6.32-4.77,13.91-11.43,19.56-.15.1-.29.24-.44.34a35.08,35.08,0,0,1-4.77,2.72c-.24.15-.54.24-.78.39-1.36.63-2.82,1.26-4.23,1.85-.78.34-1.56.63-2.34,1-2.24.88-4.28,1.65-5.64,2.09L249,268a109.3,109.3,0,0,1-25.69,4.52"/><path class="cls-3" d="M172.59,262.7c1.12-9.15,2-18.78,2.53-28.85.29-5.89.49-11.58.54-17.12,5.69,4,12.06,8.08,19.22,12.11,6.08,3.45,12,6.37,17.56,8.9"/><path class="cls-3" d="M171.67,263.28H153.82c.29-9.24,0-18.39-.24-27.63a248,248,0,0,1,.92-27.53c.34-4.13,1-8.37,3-12.06,4.33-8.22,14.35-9.73,22.67-7.93a159.59,159.59,0,0,1,38.67,13.82"/><path class="cls-3" d="M172.59,292.86H125.45v-.49a6.38,6.38,0,0,1,3.84-5.84l19.95-8.46c0-.19.15-.39.19-.58.49-1.26,1.17-3.06,1.9-5,1.26-3.45,2.72-7.3,3.45-9.19"/><path class="cls-3" d="M149.44,277.49a28.35,28.35,0,0,0,5.35,1,31.39,31.39,0,0,0,7.2-.19"/><path class="cls-3" d="M258.31,264.45c12.26,9,20.14,17.37,35.17,28.17-9.83,0-7.2.24-16.49.24-2.68,0-4.23-2.53-5.64-4.43-2.87-3.89-7-6.08-11.48-7.69-1.26-.44-2.58-.83-3.84-1.31"/><path class="cls-3" d="M256,292.86h23.3"/><path class="cls-3" d="M209.47,151a76.74,76.74,0,0,1,5.21,9,63.7,63.7,0,0,1,3.55,8.76"/><path class="cls-3" d="M221.68,144.63l-36.14,18.92a6.36,6.36,0,0,1-6.62-.39c-6.76-4.62-13.72-7.83-20.82-11.92-6.13-3.55-13.48-6.81-18.53-11.92S132.75,127,129.4,120.8a40.82,40.82,0,0,0-8.22-10.65L121,110c-1.36-1-3.06.83-2.09,2.24a21.74,21.74,0,0,1,2.63,4c3.16,7.69.83,17,6.86,23.59,2.48,2.72,5.64,4.62,8.66,6.62a109.8,109.8,0,0,1,9.34,7.1q11.53,9.34,22.91,18.87c3.45,2.87,6.86,5.74,10.26,8.66a6.42,6.42,0,0,0,6.62,1L224.45,166"/><path class="cls-3" d="M227.08,119.92c4.13-.44,6.42-.88,9.24-2.24a33.87,33.87,0,0,0,7.49-4.77"/><path class="cls-3" d="M74,152.76l-45-13-13,45,45,13Z"/><path class="cls-3" d="M20.48,169.06l15.37-8.32,7.39,13.09"/><path class="cls-3" d="M29.13,181.46,52.19,169l7.88,13.91"/><path class="cls-2" d="M59.3,164.19A4.18,4.18,0,1,0,55.11,160,4.18,4.18,0,0,0,59.3,164.19Z"/><path class="cls-3" d="M114.9,121.48l-35.17,9.24L65.28,75.85l54.87-14.4,14.4,54.87"/><path class="cls-2" d="M111.06,93.17,90.28,87.48l5.5,20.82Z"/><path class="cls-3" d="M143.84,218l-14.74,7.69-17-32.59,32.54-17,4.62,8.85"/><path class="cls-3" d="M126.77,201.75l3.7,7.1"/><path class="cls-3" d="M129.44,196.83,136,209.48"/><path class="cls-3" d="M135,197.42l3.7,7.1"/><path class="cls-3" d="M137.71,192.5l6.57,12.6"/><path class="cls-3" d="M143.31,193.14l3.7,7.1"/><path class="cls-2" d="M169,292.86H125.45v-.49a6.38,6.38,0,0,1,3.84-5.84l19.95-8.46c0-.19.15-.39.19-.58a28.35,28.35,0,0,0,5.35,1,31.39,31.39,0,0,0,7.2-.19,15.67,15.67,0,0,0,1.41,8.12A16.71,16.71,0,0,0,169,292.86Z"/><path class="cls-2" d="M293.48,292.62c-9.83,0-7.2.24-16.49.24-2.68,0-4.23-2.53-5.64-4.43-2.87-3.89-7-6.08-11.48-7.69-1.26-.44-2.58-.83-3.84-1.31v-14c.78-.29,1.56-.63,2.34-1C270.57,273.45,278.45,281.82,293.48,292.62Z"/><path class="cls-2" d="M225.52,96.09a12.15,12.15,0,0,0,5.06-1.22,40.86,40.86,0,0,0,4.67-3.36,12.17,12.17,0,0,1-2.63,6.71,12,12,0,0,1-6,4c-.39-2.53-.15-1.17-.44-2.68S225.91,97.79,225.52,96.09Z"/></svg>