<?xml version="1.0" encoding="utf-8"?>
<!-- Generator: Adobe Illustrator 21.0.0, SVG Export Plug-In . SVG Version: 6.00 Build 0)  -->
<svg version="1.1" id="Warstwa_1" xmlns="http://www.w3.org/2000/svg" xmlns:xlink="http://www.w3.org/1999/xlink" x="0px" y="0px"
	 viewBox="0 0 1024 1024" style="enable-background:new 0 0 1024 1024;" xml:space="preserve">
<style type="text/css">
	.st0{fill:#0B1728;}
	.st1{fill:#98E2C6;}
	.st2{fill:none;stroke:#98E2C6;stroke-miterlimit:10;}
	.st3{fill:#DCF4E9;}
	.st4{fill:#DCF4E9;stroke:#98E2C6;stroke-miterlimit:10;}
</style>
<path class="st0" d="M510.5,986C773.1,986,986,773.1,986,510.5S773.1,35,510.5,35S35,247.9,35,510.5S247.9,986,510.5,986z"/>
<path class="st1" d="M639.5,277.9c-7.4-2.4-15.5-3.3-23.8-2.4c-9.4,1-16.1,4.6-24.9,7.6c-7.6,2.6-18.6,2.5-25.3,7.2
	c-3.3,2.3-8.5,7.4-8.9,16.7c-0.2,6.2,2.7,13.2,8,16.3c11.7,6.7,25.2-4.5,30.7-14.1c9.7,6.3,15.2,16,13.2,27.6
	c-1,5.5-2.7,10.8-3,16.4c-0.3,9.7,4.6,19.4,12.7,24.8c2.3,1.5,4.8,2.7,6.6,4.8c2.8,3.3,3.2,7.9,3.7,12.1c1,8.2,3.3,16.6,8.1,23.5
	c4.7,6.9,13.5,9.8,17.6,17.2c3.7,6.7,2.1,15,3.7,22.2c1.9,8,4.4,15.8,8.6,22.9c4.9,8.3,12.3,15.3,21.5,18.5
	c10.6,3.7,22.2,1.5,30.4-6.2c4.2-3.9,7.3-8.9,8.6-14.4c1.7-7,0.5-14.3-2-21c-6.9-18-31.2-32-40.1-49.1c-10.7-20.5-6.4-44.4-6.6-66.4
	c-0.1-14.3-4-30-11.4-42.3C660.3,288.9,650.7,281.6,639.5,277.9z"/>
<path class="st2" d="M571.2,325.9c-1.7,13.2-1.3,23.8-0.5,31.4c1.1,10.3,3,15.6,7.1,19.8c6.2,6.2,14.6,6.7,16.7,6.8
	c8.6,0.4,15.8-3.3,21.1-7.3"/>
<path class="st2" d="M596.8,383.9c0.9,4.3,1.5,8.9,2.2,13.7c1.9,15.3,1.6,28.8,0.7,40.2c-8.1,8.9-16.5,18.6-24.8,29.3
	c-11.9,15.3-23.6,34.7-32.2,48.6"/>
<path class="st2" d="M683.3,496.8c1.3,14.5,3.9,33.2,9.1,54.4c20.2,82.2,60.4,120.7,43.9,143.9c-13.1,18.4-52.7,14.4-56.8,13.9
	c-14.4-1.6-17-5.9-42.9-11.9c-31.8-7.3-34.2-2.3-41.8-8.2c-16.8-13.2-6.9-39.3-15.6-87c-3.8-21.2-9.8-37.9-14.1-48.3"/>
<path class="st2" d="M593.2,687.5c-9.1,5.1-20.8,11.7-34.3,19.3c-42,23.7-55.8,31.6-73.3,45.7c-10.4,8.4-21.3,12.6-27,24.6
	c-0.2,0.5-0.8,1.5-1.3,3.1c-1.2,3-2.6,7.5-3.1,13s0.1,11.9,3.2,18.2c3.6,7.6,9.3,12.2,12.6,14.4h8h9.1c55.2,0,110.5,0,165.6,0h12.7
	v-30.3c0-12.3,0-24.6,0-31.5"/>
<path class="st2" d="M719.2,706.2c-3.5,14.2-10.7,31.2-25.7,43.9c-0.3,0.2-0.7,0.5-1,0.8c-2.5,1.9-6.3,3.9-10.7,6.1
	c-0.5,0.3-1.2,0.5-1.7,0.9c-3.1,1.4-6.3,2.8-9.5,4.2c-1.7,0.8-3.5,1.4-5.2,2.2c-5,2-9.6,3.7-12.7,4.7c-1.3,0.4-2.4,0.8-3.1,1
	c-23.5,7.1-43.7,9.4-57.7,10.2"/>
<path class="st2" d="M477.9,758.1c2.5-20.5,4.5-42.2,5.7-64.8c0.7-13.2,1.1-26,1.2-38.5c12.8,9,27.1,18.1,43.2,27.2
	c13.7,7.8,26.9,14.3,39.4,20"/>
<path class="st2" d="M475.8,759.4h-40.1c0.7-20.8,0-41.3-0.5-62.1c-0.5-20.5,0.3-41.3,2.1-61.8c0.8-9.3,2.3-18.8,6.7-27.1
	c9.7-18.5,32.2-21.9,50.9-17.8c29.9,6.4,59.4,17,86.9,31"/>
<path class="st2" d="M477.9,825.9h-8H372v-1.1c0-5.7,3.4-10.8,8.6-13.1l44.8-19c0.1-0.4,0.3-0.9,0.4-1.3c1.1-2.8,2.6-6.9,4.3-11.3
	c2.8-7.8,6.1-16.4,7.8-20.7"/>
<path class="st2" d="M425.9,791.3c3.6,1,7.6,1.9,12,2.2c6,0.5,11.5,0.2,16.2-0.4"/>
<path class="st2" d="M670.4,762.1c27.5,20.2,45.2,39,79,63.3c-22.1,0-16.2,0.5-37,0.5c-6,0-9.5-5.7-12.7-9.9
	c-6.4-8.7-15.7-13.7-25.8-17.3c-2.8-1-5.8-1.9-8.6-3"/>
<path class="st2" d="M665.2,825.9h47.1h5.2"/>
<path class="st2" d="M560.7,507.1c3.8,5.7,7.9,12.3,11.7,20.1c3.5,7.2,6,13.4,8,19.7"/>
<path class="st2" d="M588.2,492.9L507,535.4c-4.7,2.5-10.4,2.2-14.9-0.9c-15.2-10.4-30.8-17.6-46.8-26.8
	c-13.8-8-30.3-15.3-41.6-26.8c-11.3-11.4-15.3-27.6-22.8-41.6c-4.8-9-11-17-18.5-23.9c-0.1-0.1-0.2-0.2-0.3-0.3
	c-3.1-2.2-6.9,1.9-4.7,5c2.1,3,4.5,5.6,5.9,9c7.1,17.3,1.9,38.2,15.4,53c5.6,6.1,12.7,10.4,19.4,14.9c7.4,4.8,14.1,10.4,21,16
	c17.3,14,34.4,28.1,51.5,42.4c7.8,6.4,15.4,12.9,23.1,19.4c4.2,3.5,9.8,4.4,14.9,2.3l85.9-36.1"/>
<path class="st2" d="M600.3,437.4c9.3-1,14.4-2,20.8-5c7.1-3.5,12.8-7.1,16.8-10.7"/>
<path class="st3" d="M927.3,632.1H798.9v193.7h128.4V632.1z"/>
<path class="st1" d="M927.3,740.7H798.9v29.1h128.4V740.7z"/>
<path class="st1" d="M927.3,688.2H798.9v29.1h128.4V688.2z"/>
<path class="st2" d="M820.8,805c3.9,0,7.2-3.3,7.2-7.2s-3.3-7.2-7.2-7.2s-7.2,3.3-7.2,7.2C813.6,801.8,816.8,805,820.8,805z"/>
<path class="st2" d="M849,805c3.9,0,7.2-3.3,7.2-7.2s-3.3-7.2-7.2-7.2s-7.2,3.3-7.2,7.2C841.9,801.8,845,805,849,805z"/>
<path class="st2" d="M877.3,805c3.9,0,7.2-3.3,7.2-7.2s-3.2-7.2-7.2-7.2c-4,0-7.2,3.3-7.2,7.2C870.1,801.8,873.3,805,877.3,805z"/>
<path class="st2" d="M905.5,805c3.9,0,7.2-3.3,7.2-7.2s-3.3-7.2-7.2-7.2s-7.2,3.3-7.2,7.2C898.2,801.8,901.5,805,905.5,805z"/>
<path class="st2" d="M820.8,667.3c3.9,0,7.2-3.3,7.2-7.2s-3.3-7.2-7.2-7.2s-7.2,3.3-7.2,7.2C813.6,664.2,816.8,667.3,820.8,667.3z"
	/>
<path class="st2" d="M849,667.3c3.9,0,7.2-3.3,7.2-7.2s-3.3-7.2-7.2-7.2s-7.2,3.3-7.2,7.2C841.9,664.2,845,667.3,849,667.3z"/>
<path class="st2" d="M877.3,667.3c3.9,0,7.2-3.3,7.2-7.2s-3.2-7.2-7.2-7.2c-4,0-7.2,3.3-7.2,7.2
	C870.1,664.2,873.3,667.3,877.3,667.3z"/>
<path class="st2" d="M905.5,667.3c3.9,0,7.2-3.3,7.2-7.2s-3.3-7.2-7.2-7.2s-7.2,3.3-7.2,7.2C898.2,664.2,901.5,667.3,905.5,667.3z"
	/>
<path class="st2" d="M256.5,511.2l-101.2-29.3L126.2,583l101.2,29.3L256.5,511.2z"/>
<path class="st2" d="M136.2,547.8l34.5-18.7l16.6,29.4"/>
<path class="st2" d="M155.7,575.6l51.8-28l17.7,31.2"/>
<path class="st1" d="M223.4,536.9c5.1,0,9.4-4.2,9.4-9.4c0-5.1-4.2-9.4-9.4-9.4s-9.4,4.2-9.4,9.4C214,532.7,218.2,536.9,223.4,536.9
	z"/>
<path class="st2" d="M348.3,440.9l-79,20.8l-32.5-123.2l123.2-32.3l32.3,123.2"/>
<path class="st2" d="M339.7,377.3L293,364.5l12.3,46.8L339.7,377.3z"/>
<path class="st2" d="M413.3,657.8l-33.1,17.3l-38.1-73.2l73.1-38.1l10.4,19.9"/>
<path class="st2" d="M375,621.2l8.3,16"/>
<path class="st2" d="M381,610.2l14.8,28.4"/>
<path class="st2" d="M393.6,611.5l8.3,16"/>
<path class="st2" d="M399.6,600.4l14.8,28.3"/>
<path class="st2" d="M412.1,601.9l8.3,16"/>
<path class="st1" d="M469.9,825.9H372v-1.1c0-5.7,3.4-10.8,8.6-13.1l44.8-19c0.1-0.4,0.3-0.9,0.4-1.3c3.6,1,7.6,1.9,12,2.2
	c6,0.5,11.5,0.2,16.2-0.4c-0.4,5.5,0.1,11.9,3.2,18.2C461,819.1,466.7,823.6,469.9,825.9z"/>
<path class="st1" d="M749.4,825.3c-22.1,0-16.2,0.5-37,0.5c-6,0-9.5-5.7-12.7-9.9c-6.4-8.7-15.7-13.7-25.8-17.3
	c-2.8-1-5.8-1.9-8.6-3v-31.5c1.7-0.7,3.5-1.4,5.2-2.2C698,782.3,715.7,801.1,749.4,825.3z"/>
<path class="st1" d="M862.4,469.9c3.1-8,6.7-15.6,10.8-22.9c4-7,8.3-14.1,14.1-19.7c4.8-4.6,14.5-11.1,21.6-8.1
	c3.9,1.7,5.4,6.6,5.4,10.5c-0.1,11.7-10.7,20.7-19.7,26.4c-7.6,5-16.3,9.2-25.1,11.8C868.6,468.2,862.6,469.2,862.4,469.9z"/>
<path class="st2" d="M862.4,547c3.4-9,7.5-17.7,12.3-26c4.5-7.9,9.4-16.1,16.1-22.3c5.5-5.2,16.5-12.6,24.5-9.2
	c4.5,2,6.1,7.4,6,11.9c-0.2,13.2-12.1,23.4-22.3,30c-8.7,5.7-18.5,10.4-28.5,13.4C869.5,545.2,862.6,546.4,862.4,547z"/>
<path class="st1" d="M863.8,547c-3.4-9-7.5-17.7-12.3-26c-4.5-7.9-9.4-16.1-16.1-22.3c-5.5-5.2-16.5-12.6-24.5-9.2
	c-4.5,2-6.1,7.4-6,11.9c0.2,13.2,12.1,23.4,22.3,30c8.7,5.7,18.5,10.4,28.5,13.4C856.7,545.2,863.6,546.4,863.8,547z"/>
<path class="st1" d="M862.4,605.4c3.4-9,7.5-17.7,12.3-26c4.5-7.9,9.4-16.1,16.1-22.3c5.5-5.2,16.5-12.6,24.5-9.2
	c4.5,2,6.1,7.4,6,11.9c-0.2,13.2-12.1,23.4-22.3,30c-8.7,5.7-18.5,10.4-28.5,13.4C869.5,603.5,862.6,604.7,862.4,605.4z"/>
<path class="st2" d="M863.8,605.4c-3.4-9-7.5-17.7-12.3-26c-4.5-7.9-9.4-16.1-16.1-22.3c-5.5-5.2-16.5-12.6-24.5-9.2
	c-4.5,2-6.1,7.4-6,11.9c0.2,13.2,12.1,23.4,22.3,30c8.7,5.7,18.5,10.4,28.5,13.4C856.7,603.5,863.6,604.7,863.8,605.4z"/>
<path class="st1" d="M862.4,492.7c-2.8-7.4-6.2-14.8-10.3-21.6c-3.7-6.6-7.9-13.3-13.3-18.6c-4.6-4.4-13.8-10.5-20.4-7.6
	c-3.7,1.6-5,6.2-5,9.9c0.1,11,10.1,19.4,18.6,25c7.3,4.7,15.4,8.6,23.7,11.1C856.5,491.2,862.2,492.2,862.4,492.7z"/>
<path class="st2" d="M862.4,414.5v217.7"/>
<path class="st2" d="M62.8,825.9H971"/>
<path class="st2" d="M312.5,695.1H101.9v130.7h210.6V695.1z"/>
<path class="st2" d="M167.7,825.9V695.1"/>
<path class="st4" d="M145.9,658H80l21.9,37h65.9L145.9,658z"/>
<path class="st2" d="M268.3,658h65.9l-21.9,37h-65.9L268.3,658z"/>
<path class="st3" d="M167.7,695.1h-65.9v130.7h65.9V695.1z"/>
<path class="st2" d="M253.2,726.5l-14-6.3l-14,6.3v-31.5h28V726.5z"/>
<path class="st2" d="M253.2,793.8h-28v31.5h28V793.8z"/>
<path class="st1" d="M596.8,383.9c2.8-0.1,7-0.5,11.4-2.7c3.8-2,8.3-6,10.5-7.5c0,3.6-2,10.3-5.9,15.1c-5.2,6.4-11.8,8.5-13.5,9
	c-0.9-5.7-0.3-2.6-1-6C597.7,388.5,597.7,387.7,596.8,383.9z"/>
</svg>
